<?xml version="1.0" standalone="no"?>
<!DOCTYPE svg PUBLIC "-//W3C//DTD SVG 20010904//EN"
 "http://www.w3.org/TR/2001/REC-SVG-20010904/DTD/svg10.dtd">
<svg version="1.0" xmlns="http://www.w3.org/2000/svg"
 width="544.000000pt" height="656.000000pt" viewBox="0 0 544.000000 656.000000"
 preserveAspectRatio="xMidYMid meet">
<metadata>
Created by potrace 1.16, written by Peter Selinger 2001-2019
</metadata>
<g transform="translate(0.000000,656.000000) scale(0.100000,-0.100000)"
fill="#000000" stroke="none">
<path d="M2660 5944 c-8 -2 -54 -6 -102 -9 -49 -4 -88 -11 -88 -16 0 -11 557
-11 620 0 25 5 41 9 35 10 -29 6 -442 19 -465 15z"/>
<path d="M2006 5928 c-55 -15 -92 -51 -106 -106 -19 -69 -68 -171 -91 -185
-10 -6 -19 -17 -19 -24 0 -7 -14 -22 -30 -35 -38 -27 -80 -101 -80 -138 0 -33
-11 -43 -65 -60 -22 -7 -42 -16 -45 -20 -3 -3 -39 -17 -80 -30 -41 -13 -77
-27 -80 -30 -3 -4 -29 -15 -58 -24 -29 -10 -59 -24 -66 -32 -8 -8 -18 -14 -21
-14 -12 0 -145 -103 -145 -112 0 -5 -18 -31 -40 -59 -22 -28 -40 -57 -40 -64
0 -7 -4 -15 -9 -17 -12 -4 -111 -212 -111 -233 0 -8 -4 -15 -10 -15 -5 0 -19
-33 -30 -72 -12 -40 -25 -81 -30 -90 -20 -37 -67 -375 -91 -648 -15 -184 -20
-224 -29 -235 -4 -5 -18 -91 -29 -190 -12 -99 -26 -189 -31 -200 -16 -36 -50
-464 -50 -628 0 -54 -4 -106 -10 -116 -13 -26 -16 -1237 -2 -1254 6 -6 14 -72
18 -146 7 -129 8 -135 36 -164 22 -23 28 -39 28 -72 0 -41 22 -75 48 -75 7 0
12 -4 12 -9 0 -5 13 -14 29 -19 34 -12 37 -25 51 -215 l9 -128 37 -37 37 -37
109 0 c65 0 112 5 116 11 4 6 28 16 53 23 25 7 64 29 87 48 37 31 42 40 42 77
-1 22 -7 52 -15 66 -10 17 -14 57 -15 122 0 82 4 104 23 140 18 36 22 39 25
21 2 -12 -2 -31 -7 -42 -16 -29 -13 -63 7 -89 15 -19 35 -25 127 -37 61 -8
137 -15 171 -15 33 0 64 -4 70 -9 14 -14 2253 -19 2262 -5 4 6 27 14 51 18 80
12 85 18 78 102 -3 43 -2 74 4 74 5 0 9 -6 9 -13 0 -8 9 -22 20 -32 17 -15 20
-31 20 -91 0 -40 5 -76 10 -79 6 -3 10 -15 10 -26 0 -10 -4 -19 -10 -19 -5 0
-10 -5 -10 -12 0 -6 -9 -31 -21 -55 -20 -42 -20 -44 -2 -79 11 -23 33 -45 58
-58 22 -12 43 -25 46 -29 22 -29 274 -51 319 -27 10 5 28 29 40 52 18 36 23
66 29 190 4 81 11 152 16 156 6 5 30 16 56 25 48 18 69 52 69 112 0 16 10 37
23 49 22 21 24 33 31 166 4 80 11 147 17 150 12 8 6 971 -9 1320 -11 278 -41
662 -52 670 -4 3 -17 89 -30 193 -13 103 -27 187 -31 187 -7 0 -22 137 -40
365 -6 77 -14 145 -19 150 -4 6 -11 46 -14 90 -8 93 -33 241 -46 270 -4 11
-16 49 -25 85 -9 36 -22 74 -29 85 -7 11 -23 48 -36 83 -14 34 -28 62 -32 62
-5 0 -8 5 -8 10 0 13 -42 103 -51 110 -3 3 -14 21 -24 40 -20 40 -21 42 -109
136 -36 39 -78 77 -94 85 -15 8 -29 17 -32 20 -8 10 -101 49 -116 49 -8 0 -14
4 -14 10 0 5 -19 14 -42 20 -59 15 -112 34 -118 41 -3 3 -13 8 -22 12 -13 5
-18 17 -18 47 0 22 -4 40 -10 40 -5 0 -10 6 -10 14 0 8 -13 25 -29 38 -16 12
-45 36 -65 52 -20 16 -36 35 -36 41 0 7 -11 24 -25 39 -25 27 -65 147 -65 193
0 13 -3 23 -8 23 -4 0 -13 13 -20 30 -10 22 -24 32 -54 40 -22 6 -49 9 -61 7
-16 -3 -14 -5 8 -6 49 -2 103 -45 111 -88 4 -20 3 -48 -2 -62 -12 -32 -6 -71
7 -50 7 11 11 10 23 -6 9 -11 16 -26 16 -32 0 -25 42 -80 117 -156 l78 -78
-55 7 c-88 10 -280 -35 -432 -100 -52 -22 -48 -14 12 24 77 50 61 50 -50 2
-54 -24 -99 -33 -175 -37 -87 -4 -143 -18 -211 -54 -113 -61 -133 -91 -61 -91
23 0 53 -7 65 -16 30 -21 40 -11 48 47 9 68 24 72 24 6 l0 -54 98 18 c53 10
140 29 192 43 106 29 139 37 255 62 44 9 105 26 135 36 79 27 132 24 230 -12
47 -17 112 -40 145 -52 33 -11 67 -26 75 -33 8 -7 32 -20 53 -30 50 -23 164
-135 209 -205 49 -76 95 -168 161 -320 91 -210 169 -782 152 -1120 -7 -143
-24 -331 -31 -342 -5 -7 -44 -218 -48 -260 -1 -9 -7 -22 -13 -30 -9 -11 -20
-54 -27 -110 -1 -10 -5 -21 -9 -24 -4 -4 -7 -18 -7 -31 0 -22 -31 -101 -65
-164 -8 -14 -12 -29 -8 -33 3 -3 1 -6 -5 -6 -6 0 -9 -6 -6 -13 2 -7 -2 -27
-11 -43 -8 -16 -15 -34 -15 -41 0 -6 -4 -13 -9 -15 -12 -4 -23 -78 -12 -78 5
0 12 -8 14 -17 4 -14 5 -14 6 3 1 13 10 24 22 27 12 3 18 10 14 16 -3 6 1 14
9 17 9 3 16 12 16 20 0 8 4 14 8 14 13 0 54 88 56 120 1 8 4 20 8 26 17 26 67
201 72 249 2 22 9 68 16 103 6 35 13 78 15 95 20 146 25 200 25 254 0 34 4 64
9 67 4 3 6 16 4 30 -3 13 0 27 6 30 6 4 11 13 11 19 0 8 -3 7 -9 -2 -6 -10 -9
-3 -9 21 0 68 16 62 23 -8 4 -38 11 -89 16 -114 19 -94 29 -170 44 -330 17
-184 37 -585 30 -619 -2 -12 -5 -84 -5 -159 -1 -132 -13 -235 -47 -416 -5 -28
-64 -146 -90 -182 -13 -17 -20 -34 -16 -37 3 -4 0 -7 -8 -7 -16 -1 -79 -55
-79 -68 0 -5 -9 -17 -20 -27 -11 -10 -20 -21 -20 -25 0 -4 19 -16 43 -28 45
-22 75 -22 147 0 64 20 74 18 77 -17 1 -16 4 -42 7 -56 3 -14 1 -43 -5 -65 -5
-21 -12 -66 -15 -99 -3 -33 -10 -64 -14 -69 -5 -5 -6 -14 -3 -21 7 -20 -78
-30 -145 -17 -132 26 -196 32 -326 32 l-136 0 -10 26 c-14 37 -1 49 75 69 71
20 211 16 287 -7 29 -9 41 -9 50 0 9 9 9 12 -1 12 -7 0 -10 3 -7 8 8 14 -19
39 -71 65 -28 15 -54 31 -58 37 -16 25 -154 6 -259 -36 -27 -10 90 96 135 124
20 12 39 30 41 40 6 21 -44 82 -67 82 -23 0 -108 56 -125 82 -19 31 -22 55 -7
65 6 4 68 8 137 9 124 1 260 12 260 21 0 21 -28 45 -68 58 -138 44 -184 63
-217 90 -34 28 -36 33 -32 73 3 23 1 45 -4 48 -5 3 -9 11 -9 19 0 19 40 31 50
15 4 -7 12 -10 18 -6 6 3 13 -3 17 -14 4 -11 11 -18 16 -14 5 3 7 9 4 14 -3 4
3 6 13 3 11 -2 27 3 36 13 14 13 20 14 26 5 6 -10 9 -10 15 -1 4 6 -1 20 -11
31 -13 15 -29 19 -66 18 -44 -2 -48 -4 -43 -23 6 -19 5 -19 -13 3 -14 18 -24
22 -42 16 -15 -5 -20 -4 -16 4 4 6 3 11 -2 11 -6 0 -8 9 -5 20 3 11 2 28 -2
37 -12 30 -11 71 2 66 8 -3 10 8 7 35 -2 21 0 61 5 89 8 51 -3 83 -28 83 -6 0
-11 6 -11 13 0 9 -10 12 -30 9 -86 -12 -109 39 -45 99 19 19 35 36 35 40 0 10
67 76 84 82 8 3 18 22 22 41 3 20 12 36 20 36 8 0 11 6 8 15 -4 8 -1 15 5 15
6 0 11 8 11 18 0 10 4 22 10 28 5 5 12 27 16 49 7 45 20 65 41 65 8 0 13 6 10
13 -2 6 -10 11 -16 9 -13 -3 -4 49 11 59 5 3 5 23 0 47 -7 29 -6 42 2 46 6 2
2 5 -8 5 -18 1 -19 2 -3 14 15 10 16 17 6 45 -10 29 -9 35 7 47 18 13 18 14 2
15 -22 0 -22 9 -4 45 10 19 11 36 5 57 -4 17 -5 36 -2 41 4 6 8 20 9 31 11 86
18 122 28 128 8 6 8 8 0 8 -14 0 -10 72 7 133 6 23 13 60 16 82 2 22 8 54 13
70 5 17 16 93 25 170 9 77 19 156 21 175 11 72 11 96 4 142 -4 26 -3 53 1 59
4 7 5 18 1 23 -7 13 -8 19 -18 111 -6 68 -10 83 -18 74 -2 -2 -9 -69 -15 -149
-7 -80 -19 -188 -27 -240 -9 -52 -17 -108 -19 -125 -6 -60 -26 -160 -34 -165
-5 -3 -9 -36 -9 -75 -2 -86 -6 -128 -17 -145 -4 -7 -8 -34 -9 -61 -1 -26 -4
-50 -8 -54 -4 -4 -4 -13 -1 -21 3 -8 1 -14 -3 -14 -5 0 -10 -19 -10 -43 -2
-58 -19 -98 -39 -91 -8 3 -15 13 -15 21 0 8 -4 12 -9 8 -6 -3 -8 22 -5 60 2
40 0 65 -6 65 -5 0 -10 -4 -10 -10 0 -5 -4 -10 -10 -10 -5 0 -10 7 -10 15 0 8
-9 31 -19 51 -15 27 -17 43 -10 66 6 22 4 34 -6 45 -13 13 -19 33 -17 54 1 4
-3 22 -8 40 -8 28 -6 37 12 56 12 13 19 26 15 29 -3 4 -1 16 5 28 7 11 11 24
10 29 -1 4 3 7 9 7 6 0 9 9 6 20 -3 11 -1 23 4 26 5 3 6 10 2 17 -23 37 -8
168 18 152 5 -4 9 -1 9 4 0 6 -7 11 -16 11 -12 0 -14 4 -7 13 19 23 22 57 6
57 -12 0 -11 6 5 34 17 28 18 34 5 29 -13 -5 -13 -1 3 23 10 16 24 37 32 47
10 11 11 17 3 17 -6 0 -14 -7 -17 -15 -4 -8 -10 -13 -14 -10 -8 5 2 44 27 104
8 19 17 56 20 83 5 44 4 48 -15 48 -39 0 -132 -199 -132 -284 0 -19 -4 -56
-10 -83 -5 -26 -12 -74 -16 -106 -3 -31 -11 -63 -18 -70 -12 -12 -13 -57 -2
-102 5 -20 2 -26 -19 -31 -18 -4 -24 -11 -21 -21 3 -8 -1 -21 -10 -30 -10 -11
-13 -25 -8 -46 5 -25 4 -29 -10 -24 -10 4 -16 1 -16 -9 0 -8 5 -12 10 -9 6 3
17 -1 26 -9 14 -15 14 -16 0 -16 -18 0 -21 -16 -5 -26 16 -9 -11 -25 -33 -18
-9 2 -19 1 -21 -3 -3 -4 9 -9 25 -10 17 -1 33 -5 35 -7 9 -8 -51 -86 -66 -86
-11 0 -11 -3 -1 -15 7 -8 17 -12 24 -9 6 3 3 -1 -8 -10 -19 -15 -14 -36 9 -36
14 0 27 -24 18 -34 -4 -3 -15 1 -25 11 -10 9 -21 14 -24 10 -9 -9 6 -68 16
-62 5 3 11 1 15 -5 3 -5 -1 -10 -9 -10 -18 0 -21 -16 -5 -25 6 -4 8 -14 4 -23
-3 -8 0 -19 7 -24 10 -6 8 -12 -8 -26 -27 -23 -36 -70 -18 -98 14 -20 13 -21
-13 -16 -22 3 -25 2 -17 -8 7 -6 9 -20 7 -31 -6 -20 -43 -20 -68 1 -10 9 -13
4 -12 -22 1 -18 6 -36 11 -39 5 -4 4 -20 -2 -36 -5 -17 -6 -36 -2 -44 5 -7 6
-17 3 -22 -3 -5 0 -13 7 -17 6 -4 12 -32 13 -64 1 -30 6 -56 11 -56 4 0 5 -7
2 -16 -3 -9 -3 -21 1 -27 4 -7 8 -18 9 -27 1 -8 5 -42 9 -75 4 -33 9 -96 10
-140 2 -44 4 -80 5 -80 1 0 3 -29 4 -65 1 -36 5 -70 9 -77 4 -6 2 -15 -4 -19
-8 -5 -7 -9 2 -14 10 -7 10 -12 0 -23 -8 -11 -9 -17 -1 -22 6 -3 8 -10 5 -15
-3 -5 -1 -18 4 -28 7 -13 7 -22 -1 -30 -8 -8 -7 -13 4 -17 11 -4 15 -19 13
-56 -1 -27 2 -49 6 -49 5 0 9 -27 9 -60 0 -33 -4 -60 -10 -60 -5 0 -10 -4 -10
-10 0 -5 6 -10 13 -10 10 0 12 -25 11 -107 -1 -60 -6 -128 -10 -153 -4 -25 -7
-56 -6 -70 0 -14 1 -41 2 -60 1 -19 -4 -46 -10 -60 -8 -20 -9 -13 -5 38 5 48
3 66 -9 77 -20 20 -22 19 -21 -12 0 -22 -5 -29 -25 -32 -23 -3 -24 -4 -5 -12
19 -7 19 -8 -3 -8 -15 -1 -26 7 -33 25 -5 15 -12 25 -14 22 -3 -2 4 -29 15
-59 35 -92 49 -149 39 -149 -5 0 -9 7 -9 15 0 8 -5 15 -11 15 -6 0 -8 -9 -4
-21 5 -14 3 -19 -4 -15 -5 4 -19 -2 -31 -14 -24 -24 -30 -25 -30 -5 0 8 -11
17 -25 21 -14 3 -25 10 -25 15 0 5 -4 9 -10 9 -22 0 -8 -22 20 -31 17 -7 30
-18 30 -27 -1 -15 -2 -15 -11 1 -5 9 -19 17 -30 17 -15 0 -18 -5 -15 -24 4
-20 1 -23 -17 -18 -30 7 -48 22 -41 34 3 5 12 4 22 -4 13 -11 14 -11 10 2 -6
18 -79 23 -91 6 -5 -6 -5 5 -2 24 4 24 3 31 -3 21 -6 -9 -17 -11 -28 -7 -18 7
-18 8 0 22 23 16 15 30 -11 19 -10 -5 -22 -7 -26 -6 -4 1 -3 -7 2 -18 8 -15 7
-20 -5 -25 -8 -3 -12 -2 -9 3 3 5 -3 16 -13 23 -11 7 -19 17 -18 22 0 5 -10
11 -24 12 -24 4 -24 3 -6 -11 11 -8 16 -18 13 -22 -4 -3 -7 -3 -7 2 0 4 -8 1
-17 -8 -21 -18 -73 -12 -73 10 0 8 -4 11 -10 8 -13 -8 -13 -55 0 -55 6 0 5 -8
-2 -19 -9 -15 -16 -17 -29 -10 -24 12 -29 11 -29 -5 0 -8 6 -17 13 -19 7 -3 5
-6 -5 -6 -12 -1 -18 6 -18 19 0 11 -6 20 -14 20 -20 0 -30 -18 -13 -22 19 -4
2 -68 -19 -68 -8 0 -12 -5 -9 -10 9 -15 -14 -40 -36 -40 -11 0 -19 -4 -19 -10
0 -5 -3 -9 -7 -9 -33 5 -63 -3 -63 -17 0 -13 -9 -15 -47 -10 -125 13 -209 28
-223 40 -9 9 -28 12 -49 9 -22 -4 -36 -1 -42 8 -5 9 -9 10 -9 2 0 -11 -26 -9
-60 5 -28 10 -64 11 -76 1 -8 -7 -14 -7 -19 1 -11 17 -23 11 -18 -9 4 -16 1
-19 -19 -14 -12 4 -41 19 -62 35 -30 22 -42 25 -48 16 -6 -10 -13 -7 -28 10
-11 13 -24 21 -29 18 -5 -3 -20 -2 -33 3 -12 6 -17 10 -10 10 10 1 10 4 0 15
-9 10 -15 10 -20 3 -4 -7 -11 0 -17 16 -6 15 -16 27 -23 27 -9 0 -8 3 2 10 13
8 13 11 1 19 -8 5 -12 15 -9 23 4 9 -2 14 -18 16 -17 1 -22 -2 -18 -13 4 -9 0
-15 -10 -15 -11 0 -16 9 -16 30 0 25 -4 30 -22 30 -21 -1 -22 -2 -5 -14 21
-16 22 -26 1 -26 -8 0 -12 5 -9 10 3 6 2 10 -4 10 -5 0 -12 8 -15 18 -3 9 -4
5 -2 -10 2 -17 -2 -28 -9 -28 -8 0 -12 14 -10 41 2 42 -16 62 -37 41 -7 -7
-18 -8 -27 -3 -21 12 -72 11 -65 -1 3 -4 11 -8 17 -7 7 1 23 1 36 0 19 -1 23
-5 19 -26 -3 -13 -2 -23 1 -20 4 2 13 0 21 -5 11 -7 6 -8 -15 -7 -17 1 -30 8
-30 15 0 6 -4 11 -10 10 -5 -2 -9 -9 -9 -15 1 -7 -5 -13 -13 -13 -8 0 -11 5
-8 10 3 6 -1 10 -10 10 -13 0 -16 -6 -11 -25 5 -21 3 -25 -15 -25 -12 0 -23 8
-26 20 -6 22 -11 24 -32 11 -8 -6 -10 -14 -5 -22 5 -8 10 -30 11 -51 2 -32 0
-36 -20 -32 -12 2 -16 2 -9 -2 24 -11 11 -20 -35 -22 -78 -4 -84 -6 -79 -19 3
-7 1 -15 -4 -18 -6 -4 -10 0 -10 7 0 26 -18 42 -32 31 -9 -8 -16 -7 -26 3 -11
12 -10 14 3 14 20 0 14 24 -6 26 -44 3 -50 5 -45 13 4 5 0 12 -6 15 -10 3 -8
9 5 19 9 8 17 17 17 20 0 7 -28 3 -36 -6 -13 -12 -22 -8 -29 13 -4 11 -10 18
-15 15 -4 -3 -6 4 -3 15 4 16 0 20 -20 20 -16 0 -26 7 -30 20 -3 10 -2 19 2
18 3 0 13 0 21 1 12 1 11 5 -4 16 -19 14 -19 16 -2 57 10 24 22 51 27 60 11
22 12 38 0 38 -5 0 -16 -15 -25 -32 -13 -28 -16 -30 -16 -10 0 12 -6 22 -13
22 -7 0 -23 14 -35 30 -13 17 -18 30 -12 30 5 0 10 -5 10 -12 0 -6 3 -8 6 -5
4 4 1 13 -6 22 -10 12 -10 18 0 30 7 9 10 19 6 22 -4 4 -11 1 -15 -6 -10 -16
-31 -6 -31 14 0 7 6 16 13 18 10 4 10 6 0 6 -19 1 -16 21 3 21 10 0 14 5 10
16 -3 8 -2 13 3 10 15 -10 19 43 4 64 -30 42 -17 149 19 163 10 4 10 6 0 6 -7
1 -10 6 -7 11 3 6 2 10 -4 10 -6 0 -6 11 -1 29 4 16 5 32 2 36 -12 11 -8 65 4
65 13 0 13 48 0 68 -4 7 -3 18 2 25 5 7 12 29 16 50 4 20 12 37 17 37 6 0 7 9
3 23 -13 37 -11 81 4 99 8 9 11 22 7 28 -6 9 -10 9 -16 -1 -9 -16 -5 69 6 93
4 10 12 15 19 11 6 -4 5 1 -3 10 -11 14 -11 17 0 17 9 0 10 3 3 8 -15 10 -25
42 -13 42 5 0 9 6 8 13 -3 26 2 37 17 37 13 0 14 3 5 14 -11 14 -10 50 2 62 4
4 2 13 -4 20 -8 10 -7 22 5 45 9 17 13 36 10 41 -3 5 1 15 9 21 20 16 29 57
12 57 -10 0 -11 9 -4 40 5 22 11 55 13 73 3 18 6 34 7 37 1 3 3 19 4 35 2 45
15 126 26 159 7 22 6 32 -3 38 -10 6 -10 8 0 8 6 0 12 9 12 21 0 13 -4 18 -12
13 -9 -5 -8 -2 1 9 8 10 11 20 8 24 -4 3 -2 13 5 20 9 11 9 17 -3 24 -12 8
-12 10 0 18 10 6 12 21 8 49 -3 26 -1 42 6 45 6 2 3 6 -6 10 -9 3 -17 2 -17
-3 0 -6 -7 -10 -16 -10 -11 0 -15 6 -11 19 3 15 0 19 -14 18 -11 -1 -19 -6
-19 -12 0 -13 36 -45 51 -45 6 0 4 -7 -5 -15 -8 -8 -24 -15 -36 -15 l-22 0 23
-20 c13 -10 20 -20 14 -20 -48 -6 -68 -4 -72 7 -7 17 -33 17 -33 -1 0 -8 -7
-16 -15 -20 -8 -3 -14 -11 -13 -17 2 -6 -2 -13 -8 -16 -11 -4 -14 9 -14 70 0
30 -4 37 -20 37 -11 0 -20 5 -20 10 0 6 3 9 8 9 4 -1 17 -1 30 0 28 1 29 21 1
21 -15 0 -19 5 -15 15 3 10 -1 15 -12 15 -15 0 -15 2 -2 10 8 5 11 10 5 10 -5
0 -4 5 2 11 11 11 -4 59 -19 59 -3 0 -4 9 -1 20 4 16 0 20 -18 20 -21 1 -22 2
-6 11 9 5 22 7 27 4 6 -3 7 1 4 9 -3 9 -9 15 -12 14 -21 -2 -42 3 -42 12 0 5
8 7 18 4 12 -4 12 -2 -3 8 -12 7 -19 21 -17 31 2 9 -1 17 -6 17 -10 0 -26 56
-23 79 1 7 -1 20 -5 30 -11 27 -12 55 -2 69 7 8 7 12 0 12 -14 0 -40 82 -47
150 -4 30 -12 71 -19 90 -22 60 -37 104 -40 118 -1 7 -8 18 -14 24 -7 7 -12
16 -12 21 0 13 -22 32 -58 51 -29 15 -34 15 -47 2 -9 -8 -11 -17 -6 -20 5 -3
7 -15 4 -26 -3 -12 2 -29 11 -39 11 -12 16 -31 14 -53 l-3 -33 -42 43 c-60 59
-53 39 12 -38 31 -36 51 -66 45 -68 -5 -2 4 -24 22 -48 20 -28 33 -59 34 -82
1 -20 5 -53 9 -72 9 -48 13 -100 17 -188 1 -40 7 -76 13 -80 22 -14 47 -84 41
-116 -15 -80 -18 -106 -19 -172 -1 -48 -5 -70 -12 -68 -13 5 -45 -57 -45 -86
0 -13 -5 -17 -14 -14 -11 4 -14 -1 -13 -18 0 -12 5 -26 10 -29 5 -3 10 -38 13
-78 4 -60 2 -71 -11 -71 -9 0 -14 4 -11 9 3 5 -1 11 -9 14 -10 4 -12 16 -8 41
4 23 0 44 -9 58 -24 38 -29 68 -10 68 13 0 14 2 4 9 -14 8 -21 37 -27 103 -1
20 -6 41 -9 46 -3 6 -2 12 2 14 5 1 2 19 -6 38 -8 19 -15 59 -15 88 0 28 -4
52 -7 52 -4 0 -5 11 -2 25 2 14 0 31 -5 38 -10 12 -22 85 -29 177 -2 24 -8 58
-14 75 -12 38 -39 190 -46 264 -3 31 -7 74 -9 96 -2 22 1 52 8 67 10 24 12 25
25 10 11 -15 11 -14 1 7 -13 27 -16 104 -5 141 l7 25 -24 -27 -25 -27 -20 22
c-22 25 -23 22 33 142 88 188 178 292 308 354 82 40 312 130 399 157 45 14 50
13 126 -15 44 -16 99 -32 123 -36 23 -4 94 -25 158 -47 119 -41 305 -99 352
-111 25 -6 27 -4 33 38 10 60 26 57 26 -5 0 -36 4 -50 14 -50 8 0 16 5 18 10
2 6 29 14 61 17 31 3 57 9 57 13 0 12 -44 48 -87 70 -23 12 -88 35 -145 51
-56 16 -107 34 -112 39 -4 4 -15 6 -22 3 -8 -3 -14 0 -14 6 0 6 -12 11 -26 11
-29 0 -146 44 -184 70 -14 9 -39 22 -56 29 -16 6 -41 22 -55 34 -14 12 -35 31
-48 42 l-24 20 11 -21 c6 -12 41 -45 77 -73 36 -28 65 -53 65 -56 0 -2 -44 19
-97 47 -87 45 -104 50 -155 49 -32 -1 -58 3 -58 9 0 5 17 27 38 48 59 61 92
103 92 118 0 19 34 18 50 -1 7 -9 15 -13 18 -10 3 3 11 0 19 -7 22 -18 26 -2
7 29 -10 15 -21 30 -24 33 -12 11 -30 51 -30 65 0 41 29 72 87 93 32 11 67 22
78 25 13 3 9 5 -10 5 -16 0 -48 -5 -69 -10z m-1021 -1224 c16 -24 16 -26 1
-21 -14 5 -15 3 -6 -13 11 -21 13 -37 3 -27 -7 8 -34 -41 -31 -57 1 -6 -4 -37
-11 -70 -12 -56 -9 -246 5 -268 3 -5 7 -30 9 -56 2 -26 4 -47 5 -47 2 0 8 -48
17 -147 5 -49 5 -88 1 -88 -4 0 -8 -4 -8 -10 0 -5 7 -10 15 -10 9 0 15 -9 14
-22 -1 -41 10 -108 21 -129 6 -11 10 -27 9 -37 -1 -9 0 -19 0 -22 1 -3 4 -18
6 -35 2 -16 7 -48 11 -70 3 -22 7 -67 8 -100 2 -33 5 -67 9 -75 13 -34 15 -89
4 -93 -8 -2 -6 -10 6 -21 13 -14 15 -21 6 -32 -6 -7 -7 -19 -3 -26 12 -19 13
-38 2 -38 -5 0 -6 -9 -3 -20 4 -12 2 -20 -5 -20 -6 0 -10 -6 -7 -12 2 -7 10
-12 17 -10 10 2 11 0 2 -11 -9 -11 -9 -24 3 -57 8 -24 16 -59 18 -79 1 -20 5
-38 8 -41 3 -3 15 -26 28 -51 12 -26 33 -59 47 -74 16 -17 23 -34 19 -45 -4
-13 1 -22 15 -30 11 -6 18 -15 16 -19 -3 -4 6 -18 19 -31 13 -13 22 -27 19
-31 -3 -5 1 -9 8 -9 22 -1 93 -98 90 -122 -3 -30 -31 -52 -67 -56 -45 -4 -66
-35 -58 -86 3 -22 10 -42 15 -44 4 -2 8 -10 8 -18 0 -8 6 -17 14 -20 8 -3 13
-13 11 -22 -2 -9 -4 -21 -4 -25 -1 -5 -6 -5 -12 -1 -6 4 -10 -1 -8 -12 4 -31
-12 -124 -22 -124 -5 0 -9 -4 -9 -10 0 -5 7 -10 15 -10 12 0 14 -4 5 -20 -6
-10 -9 -25 -8 -32 2 -8 -5 -12 -17 -9 -20 3 -20 3 -1 -18 11 -12 14 -21 8 -21
-5 0 -8 -9 -5 -20 11 -44 -121 -129 -203 -130 -10 0 -28 -7 -38 -15 -11 -8
-28 -13 -38 -9 -13 4 -21 -1 -27 -18 -5 -13 -7 -26 -5 -29 7 -13 72 -19 232
-21 89 -1 167 -5 172 -8 14 -9 -10 -54 -50 -96 -17 -18 -56 -45 -86 -61 -56
-28 -79 -58 -68 -88 4 -8 10 -15 14 -15 10 0 144 -120 149 -133 4 -11 -10 -8
-121 22 -58 16 -83 19 -103 11 -15 -6 -30 -8 -35 -5 -5 3 -12 0 -15 -6 -4 -6
-26 -19 -50 -29 -44 -19 -105 -71 -105 -90 0 -12 15 -10 154 17 149 29 305 -1
298 -57 -1 -13 -7 -29 -12 -34 -5 -5 -78 -11 -162 -12 -99 -1 -176 -7 -218
-18 -77 -19 -127 -20 -161 -4 -32 15 -60 69 -47 91 7 13 5 17 -7 17 -8 0 -15
9 -15 21 0 11 -4 28 -9 37 -15 30 -25 105 -12 97 8 -4 10 1 6 17 -5 21 -2 23
32 25 20 1 42 -2 48 -7 6 -5 27 -5 47 -1 21 5 39 6 43 3 6 -6 53 17 73 35 20
19 14 39 -28 84 -22 24 -40 48 -40 55 0 6 -8 14 -19 17 -10 2 -25 16 -32 29
-86 155 -128 291 -134 438 -2 49 -5 93 -8 97 -5 9 -6 129 -6 413 1 201 2 223
13 350 4 47 9 107 12 133 2 27 6 53 10 58 7 12 17 94 15 133 0 16 5 36 11 44
10 12 15 5 25 -34 9 -34 9 -50 2 -53 -8 -2 -8 -6 0 -11 14 -8 34 -136 25 -152
-4 -6 -1 -13 5 -17 6 -4 14 -36 17 -72 4 -35 12 -82 20 -104 8 -22 14 -52 14
-67 0 -15 5 -39 11 -55 6 -15 13 -37 14 -48 8 -53 89 -246 107 -253 5 -2 8 -8
8 -14 0 -16 83 -87 103 -88 41 -1 52 41 18 67 -9 6 -16 15 -16 20 -1 4 -9 23
-18 41 -10 17 -14 32 -11 32 4 0 0 8 -8 18 -8 9 -15 24 -15 33 0 8 -9 29 -21
45 -11 16 -22 40 -24 54 -2 14 -5 27 -8 30 -10 10 -32 76 -32 94 1 10 -5 28
-13 40 -8 11 -17 37 -20 56 -10 57 -26 124 -35 145 -5 11 -20 79 -34 150 -41
218 -46 267 -47 509 0 195 19 447 47 616 9 52 20 118 24 145 9 58 27 131 40
160 4 11 16 43 26 72 15 43 20 50 34 43 10 -5 25 -21 35 -36z m2050 -3564 c-4
-6 22 -9 69 -7 41 1 77 -1 81 -5 4 -4 7 -22 7 -42 0 -24 4 -33 13 -30 7 3 12
13 11 22 -1 17 2 18 84 13 17 -1 21 -4 12 -9 -9 -6 -6 -12 13 -20 17 -8 24
-18 22 -34 -1 -14 6 -26 19 -33 12 -6 30 -17 39 -25 16 -13 19 -13 28 1 8 13
16 15 39 7 15 -6 28 -14 28 -20 0 -5 5 -6 10 -3 6 4 10 3 9 -2 -2 -16 14 -53
23 -53 6 0 8 11 6 25 -6 29 -2 31 18 10 23 -23 36 -18 32 12 -2 20 2 29 16 31
10 2 23 -2 30 -8 8 -10 5 -11 -18 -6 -25 6 -28 5 -18 -7 7 -8 23 -12 43 -9 22
3 27 7 18 13 -12 7 -12 9 0 9 8 0 11 7 8 19 -3 12 1 22 9 25 8 3 15 0 15 -7 1
-7 3 -23 4 -36 5 -50 70 -70 81 -25 5 21 11 25 31 21 13 -2 26 0 29 5 8 13 26
-2 20 -17 -3 -9 3 -12 20 -10 14 1 24 -3 24 -11 0 -14 35 -28 49 -20 5 4 8 -2
6 -11 -4 -25 5 -36 19 -24 8 7 12 4 12 -10 0 -10 -4 -19 -9 -19 -7 0 2 -14 29
-43 6 -6 9 -19 6 -29 -2 -11 1 -18 9 -18 8 -1 2 -8 -14 -16 -47 -25 -242 -36
-531 -30 -149 3 -286 5 -303 5 -18 0 -33 6 -33 12 0 8 -4 9 -13 0 -15 -12
-797 -14 -813 -3 -13 10 -13 96 0 104 7 5 5 8 -6 8 -12 0 -18 8 -18 23 0 20 5
24 30 22 17 -1 30 2 30 7 0 5 -26 8 -57 7 -32 -1 -53 -4 -47 -6 7 -2 9 -14 6
-26 -5 -20 -4 -20 11 -8 15 12 17 10 17 -23 0 -29 -4 -36 -20 -36 -11 0 -20
-5 -20 -11 0 -6 9 -8 20 -4 11 4 20 2 20 -4 0 -6 -14 -11 -31 -11 -24 0 -30 4
-25 15 6 17 -2 19 -24 5 -9 -6 -10 -10 -3 -10 6 0 15 -9 18 -21 5 -13 11 -17
18 -11 15 11 51 1 54 -15 2 -9 -15 -12 -60 -10 -56 2 -62 4 -65 25 -2 14 -10
22 -23 22 -21 0 -26 -16 -6 -23 9 -3 9 -8 1 -17 -15 -15 -46 -10 -52 9 -3 10
0 12 12 8 10 -4 16 -1 16 9 0 8 -4 13 -9 10 -5 -4 -11 0 -14 6 -3 10 -7 10
-17 1 -7 -6 -19 -9 -27 -6 -11 4 -14 0 -11 -13 2 -10 10 -18 16 -17 7 2 12 -2
12 -8 0 -17 -462 -2 -549 19 -52 12 -52 33 -1 30 24 -2 44 2 46 7 5 15 -24 50
-33 40 -5 -4 -2 -10 5 -12 16 -6 16 -33 -1 -33 -7 0 -22 7 -33 15 -17 13 -17
14 -2 15 12 0 15 5 11 16 -5 13 2 15 42 12 35 -2 49 1 53 11 3 10 -1 12 -17 8
-14 -3 -21 -1 -18 6 2 6 14 12 28 12 17 0 23 5 21 17 -2 12 2 16 13 12 8 -3
15 -12 15 -20 0 -8 9 -14 21 -14 15 0 19 5 15 16 -3 8 -2 13 3 9 5 -3 12 1 14
7 3 7 6 3 6 -9 1 -12 -6 -26 -15 -31 -11 -6 -14 -14 -9 -22 6 -10 10 -10 19 1
6 8 19 15 29 15 14 2 15 -1 6 -12 -9 -11 -4 -13 31 -8 36 5 42 3 47 -14 6 -23
53 -37 53 -16 0 8 -10 14 -22 15 l-23 0 23 9 c29 12 28 18 -3 12 -22 -4 -25
-1 -25 26 0 17 -6 33 -12 35 -10 4 -10 6 0 6 8 1 16 -8 19 -18 3 -12 12 -18
27 -17 19 3 22 -3 24 -52 l3 -54 -35 6 c-34 6 -36 5 -36 -19 0 -18 5 -25 20
-25 11 0 20 7 20 15 0 11 7 13 29 9 27 -6 29 -4 24 17 -5 18 -3 21 10 16 10
-4 24 -10 34 -14 11 -4 14 -3 9 5 -4 7 -1 12 8 12 9 0 16 7 16 15 0 16 -16 20
-24 6 -3 -5 -17 -8 -30 -8 -22 -1 -23 2 -13 18 7 11 13 16 14 12 2 -5 28 -6
59 -5 44 3 55 1 52 -10 -3 -7 -15 -12 -28 -10 -18 3 -21 0 -16 -13 3 -9 6 -21
6 -26 0 -9 9 -3 44 28 8 7 17 9 21 5 5 -4 5 2 0 13 -4 11 -8 28 -9 37 -3 27
-16 34 -22 13 -4 -18 -12 -20 -65 -17 -32 2 -57 8 -54 12 3 5 12 7 20 3 9 -3
15 1 15 10 0 9 -8 18 -17 20 -10 2 -8 3 5 2 12 -1 22 1 22 4 0 3 9 12 20 19
17 10 20 10 20 -4 0 -8 -4 -12 -10 -9 -5 3 -10 1 -10 -4 0 -6 4 -11 10 -11 5
0 7 -7 4 -15 -4 -10 0 -15 11 -15 11 0 15 5 12 14 -3 8 2 16 14 19 13 3 17 11
13 21 -3 9 -1 16 6 16 6 0 8 -5 4 -12 -5 -7 -2 -9 8 -6 8 4 21 2 29 -3 11 -6
8 -9 -9 -9 -15 0 -22 -5 -19 -12 6 -21 31 -15 42 10 5 12 15 20 22 18 13 -6
39 32 34 49 -1 6 3 5 9 -1 9 -9 9 -17 0 -34 -10 -18 -9 -25 7 -39 30 -28 52
-33 50 -10 -1 13 -9 19 -24 19 -13 0 -23 4 -23 8 0 5 13 7 29 4 20 -3 35 3 53
21 13 13 23 29 22 36 -1 6 0 7 3 1 2 -5 11 -10 19 -10 9 0 12 -5 9 -10 -4 -6
-11 -8 -16 -5 -5 4 -9 0 -9 -8 0 -23 37 -28 43 -6 3 11 13 19 22 19 9 0 13 -4
10 -10 -9 -15 4 -30 21 -23 9 3 13 12 9 21 -5 12 -3 13 10 2 9 -8 27 -15 40
-16 23 -2 23 -2 4 17 -10 10 -22 19 -26 19 -5 0 -8 14 -8 31 l0 30 17 -22 c17
-20 19 -21 55 -5 l38 15 -44 -2 c-44 -2 -69 17 -34 26 15 4 14 5 -3 6 -29 1
-38 26 -11 28 11 1 24 8 28 15 6 9 11 3 15 -20 8 -38 15 -44 34 -31 13 7 12 9
-2 9 -31 0 -19 18 20 31 20 6 42 15 47 19 18 13 67 22 60 10 -3 -5 -12 -10
-19 -10 -24 0 -40 -28 -26 -45 6 -8 9 -18 7 -23 -3 -4 -2 -14 4 -22 6 -10 9
-11 9 -2 0 17 18 15 37 -3 12 -13 18 -13 30 -3 13 10 19 8 34 -11 13 -16 32
-24 65 -27 31 -3 43 -1 39 6 -4 6 -14 10 -23 9 -30 -3 -33 1 -21 23 10 19 9
20 -7 13 -20 -8 -20 -8 -76 1 -40 6 -45 13 -27 31 8 8 8 17 -1 33 -6 12 -9 24
-6 28 3 3 6 -1 6 -9 0 -12 2 -12 9 0 6 9 11 10 15 2 4 -6 2 -11 -5 -11 -9 0
-9 -3 0 -14 6 -7 9 -21 5 -30 -4 -12 0 -16 15 -16 24 0 27 10 9 28 -7 7 -8 12
-2 12 5 0 15 -9 22 -20 7 -11 22 -20 34 -20 12 0 30 -7 40 -17 10 -9 18 -11
18 -5 0 6 -6 13 -12 16 -10 5 -10 7 0 12 6 3 12 15 12 25 0 12 5 17 10 14 6
-4 8 -16 5 -28 -4 -17 -2 -15 10 6 9 15 22 27 30 27 8 0 15 4 15 9 0 4 -12 7
-27 5 l-28 -4 29 10 c19 6 34 6 42 0 8 -8 10 -4 6 15 -2 14 -9 22 -15 18 -6
-3 -7 -1 -3 5 4 7 20 5 49 -8 23 -11 48 -20 55 -20 23 0 12 18 -15 26 -27 8
-27 8 12 14 22 4 41 8 43 9 2 0 0 -3 -3 -9z m-1790 -34 c28 -12 57 -31 65 -41
14 -17 13 -18 -15 -9 -42 12 -149 11 -215 -3 -141 -31 -296 -62 -307 -63 -47
-1 29 75 89 90 24 6 53 15 66 20 13 6 53 10 90 11 37 0 76 4 87 9 36 15 89 10
140 -14z m3186 -21 c128 -5 270 -63 277 -112 3 -21 0 -22 -48 -18 -28 3 -61
10 -73 17 -22 12 -49 19 -147 38 -30 7 -84 18 -120 25 -48 11 -77 12 -109 4
-25 -5 -54 -9 -65 -7 -18 3 -15 7 17 27 38 24 134 42 171 34 10 -3 54 -6 97
-8z m-3245 -133 c34 -29 43 -56 50 -149 3 -48 12 -105 19 -126 12 -34 11 -36
-2 -25 -10 8 -43 12 -92 12 -74 -1 -168 -28 -248 -69 l-28 -15 -7 48 c-3 26
-7 98 -7 161 -1 111 -1 114 26 135 51 41 67 45 168 45 81 0 104 -3 121 -17z
m3308 -21 c84 -29 91 -48 90 -216 -1 -79 -4 -151 -8 -160 -5 -14 -11 -13 -48
8 -24 14 -81 37 -127 52 -68 22 -96 27 -148 22 -62 -5 -63 -4 -56 17 3 11 8
35 9 51 1 17 9 59 17 95 9 36 18 77 21 91 11 51 155 74 250 40z"/>
<path d="M3348 5896 c-15 -5 -34 -24 -42 -40 -15 -33 -59 -76 -76 -76 -6 0
-10 -4 -10 -10 0 -5 -7 -10 -15 -10 -9 0 -29 -10 -45 -21 -15 -12 -46 -23 -67
-25 -21 -2 -49 -7 -63 -10 -14 -4 -36 -7 -50 -8 -15 -1 -24 -6 -22 -14 2 -10
-4 -9 -26 2 -26 13 -30 13 -42 -4 -12 -17 -15 -17 -37 -3 -21 14 -23 14 -29
-1 -8 -20 -64 -17 -81 4 -10 13 -12 13 -18 -2 -6 -16 -24 -18 -169 -18 -90 0
-166 -3 -170 -7 -4 -4 -33 -17 -64 -29 -101 -37 -86 -56 182 -229 37 -25 96
-68 130 -97 96 -84 89 -80 117 -55 67 61 221 177 235 177 10 0 207 122 244
151 21 16 42 46 54 76 20 53 32 81 71 166 33 73 31 97 -7 83z"/>
<path d="M2374 2678 c28 -16 936 -25 936 -9 0 7 -30 11 -92 11 -51 1 -266 3
-478 5 -287 3 -380 2 -366 -7z"/>
</g>
</svg>
