<svg width="80" height="80" viewBox="0 0 80 80" fill="none" xmlns="http://www.w3.org/2000/svg">
<g clip-path="url(#clip0_1_811)">
<path d="M76.0865 31.05C71.9132 26.9733 61.1632 24.2267 47.2432 23.52C48.9398 21.7267 49.9965 19.3233 49.9965 16.6667C49.9965 12.4033 47.3032 8.78333 43.5398 7.34667C44.6432 5.66667 47.1165 3.33333 51.6632 3.33333C52.5832 3.33333 53.3298 2.58667 53.3298 1.66667C53.3298 0.746667 52.5832 0 51.6632 0C44.7932 0 41.3532 4.14 40.1132 6.68C40.0732 6.68 40.0365 6.66667 39.9965 6.66667C39.9565 6.66667 39.9198 6.67667 39.8798 6.68C38.6398 4.14333 35.1998 0 28.3298 0C27.4098 0 26.6632 0.746667 26.6632 1.66667C26.6632 2.58667 27.4098 3.33333 28.3298 3.33333C32.8765 3.33333 35.3498 5.66667 36.4532 7.34667C32.6898 8.78333 29.9965 12.4033 29.9965 16.6667C29.9965 19.3233 31.0565 21.7267 32.7498 23.52C18.8298 24.2267 8.07983 26.9733 3.9065 31.05C1.38316 33.5167 -0.00683594 36.7967 -0.00683594 40.29C-0.00683594 43.7833 1.38316 47.06 3.9065 49.5267C6.4965 52.06 9.90316 53.3267 13.3065 53.3267C16.7098 53.3267 20.1132 52.06 22.7032 49.5267C22.9698 49.2667 23.2732 48.9367 23.5632 48.6333C24.7265 59.3667 30.1032 71.5433 34.1165 77.0167C35.5065 78.9133 37.6498 80.0033 39.9932 80.0033C42.3365 80.0033 44.4798 78.9167 45.8698 77.0167C49.8832 71.54 55.2565 59.3667 56.4232 48.63C56.7132 48.9367 57.0165 49.2633 57.2832 49.5233C59.8732 52.0567 63.2798 53.3233 66.6798 53.3233C70.0798 53.3233 73.4898 52.0567 76.0798 49.5233C78.6032 47.06 79.9932 43.7767 79.9932 40.2867C79.9932 36.7967 78.6032 33.5133 76.0798 31.0467L76.0865 31.05ZM49.1998 63.3333H30.7965C29.9665 61.2 29.2065 58.95 28.5665 56.6667H51.4265C50.7865 58.95 50.0265 61.2 49.1965 63.3333H49.1998ZM27.7265 53.3333C27.2265 51.0667 26.8732 48.8167 26.7332 46.6667H53.2598C53.1198 48.8167 52.7665 51.0667 52.2665 53.3333H27.7265ZM28.1098 43.3333C29.7632 41.2733 31.5198 38.9967 33.2865 36.6667H46.7065C48.4732 38.9967 50.2298 41.2733 51.8832 43.3333H28.1098ZM35.7998 33.3333C36.1832 32.8233 36.5698 32.3067 36.9465 31.8067C38.0165 30.38 39.0265 29.0367 39.9965 27.7567C40.9665 29.0367 41.9765 30.38 43.0465 31.8067C43.4232 32.31 43.8098 32.8233 44.1932 33.3333H35.7998ZM33.3298 16.6667C33.3298 12.99 36.3198 10 39.9965 10C43.6732 10 46.6632 12.99 46.6632 16.6667C46.6632 20.3433 43.6732 23.3333 39.9965 23.3333C36.3198 23.3333 33.3298 20.3433 33.3298 16.6667ZM20.3765 47.1433C16.4732 50.9533 10.1365 50.9533 6.23983 47.1433C4.3665 45.31 3.32983 42.8767 3.32983 40.29C3.32983 37.7033 4.3665 35.27 6.23983 33.4333C10.0865 29.6767 22.0598 27.06 36.6065 26.7067C35.8565 27.6967 35.0765 28.7367 34.2798 29.8033C29.3398 36.3933 23.7365 43.8633 20.3765 47.1433ZM43.1832 75.0433C41.6732 77.1067 38.3198 77.1067 36.8098 75.0433C35.3798 73.0967 33.7365 70.1333 32.1865 66.6667H47.8032C46.2565 70.1333 44.6132 73.0933 43.1832 75.0433ZM73.7532 47.1433C69.8565 50.9533 63.5198 50.9533 59.6165 47.1433C56.2565 43.8633 50.6565 36.3933 45.7132 29.8067C44.9165 28.74 44.1332 27.7 43.3865 26.71C57.9332 27.0633 69.9065 29.6767 73.7532 33.4367C75.6265 35.27 76.6632 37.7067 76.6632 40.2933C76.6632 42.88 75.6265 45.3133 73.7532 47.1467V47.1433Z" fill="#2E2E2E"/>
</g>
<defs>
<clipPath id="clip0_1_811">
<rect width="80" height="80" fill="white"/>
</clipPath>
</defs>
</svg>
