<svg width="41" height="40" viewBox="0 0 41 40" fill="none" xmlns="http://www.w3.org/2000/svg">
<path d="M25.45 37.9167H15.45C6.4 37.9167 2.53333 34.05 2.53333 25V15C2.53333 5.95004 6.4 2.08337 15.45 2.08337H18.7833C19.4667 2.08337 20.0333 2.65004 20.0333 3.33337C20.0333 4.01671 19.4667 4.58337 18.7833 4.58337H15.45C7.76667 4.58337 5.03333 7.31671 5.03333 15V25C5.03333 32.6834 7.76667 35.4167 15.45 35.4167H25.45C33.1333 35.4167 35.8667 32.6834 35.8667 25V21.6667C35.8667 20.9834 36.4333 20.4167 37.1167 20.4167C37.8 20.4167 38.3667 20.9834 38.3667 21.6667V25C38.3667 34.05 34.5167 37.9167 25.45 37.9167Z" fill="#2E2E2E"/>
<path d="M21.8 25.4001C21.55 25.4001 21.3167 25.3334 21.1 25.1834C20.75 24.9501 20.55 24.5667 20.55 24.1501C20.55 23.9667 20.5333 23.7667 20.5 23.5667C20.3833 22.6834 19.9833 21.9001 19.3167 21.2167C18.6333 20.5334 17.8 20.1001 16.8833 19.9834C16.75 19.9667 16.5333 19.9501 16.3333 19.9667C15.9167 20.0001 15.5 19.8167 15.25 19.4834C15 19.1501 14.9333 18.7001 15.0667 18.3001C15.2667 17.7334 15.5833 17.2001 15.95 16.7834L18 14.2167C21.5667 9.76672 28.75 4.43339 34.05 2.31672C35.2667 1.85006 36.55 2.11672 37.4333 3.00006C38.35 3.91672 38.6167 5.21672 38.1333 6.40006C36.0167 11.6834 30.6833 18.8834 26.25 22.4334L23.6333 24.5334C23.1167 24.9001 22.7 25.1501 22.2667 25.3167C22.1167 25.3667 21.95 25.4001 21.8 25.4001ZM18.3667 17.7834C19.3833 18.1167 20.3 18.6834 21.0833 19.4501C21.85 20.2167 22.4 21.1001 22.7167 22.0501L24.6833 20.4667C28.8333 17.1334 33.8333 10.4001 35.8167 5.45006C35.95 5.13339 35.8 4.90006 35.6667 4.75006C35.5833 4.66672 35.35 4.48339 34.9667 4.63339C30.0333 6.61672 23.3 11.6167 19.9667 15.7667L18.3667 17.7834Z" fill="#2E2E2E"/>
<path d="M13.3333 31.2499C12.2667 31.2499 11.25 30.8333 10.4833 30.0666C9.6 29.1833 9.16667 27.9666 9.31667 26.7166L9.66667 23.4499C10.0333 20.0666 12.7833 17.5666 16.2333 17.4999C16.5 17.4833 16.8333 17.4999 17.15 17.5166C18.6667 17.7166 20.0167 18.3833 21.0833 19.4666C22.15 20.5333 22.8 21.7999 22.9833 23.2333C23.0333 23.5499 23.05 23.8666 23.05 24.1666C23.05 25.9833 22.35 27.6999 21.0667 28.9833C20.0167 30.0333 18.65 30.6833 17.1 30.8833L13.8 31.2333C13.6333 31.2499 13.4833 31.2499 13.3333 31.2499ZM16.5 19.9833C16.45 19.9833 16.3833 19.9833 16.3333 19.9833C14.4167 20.0333 12.4 21.3166 12.15 23.7166L11.8 26.9999C11.75 27.4833 11.9167 27.9666 12.25 28.2999C12.5833 28.6333 13.05 28.7999 13.5167 28.7499L16.8 28.3999C17.7667 28.2833 18.6333 27.8666 19.2833 27.2166C20.0833 26.3999 20.5333 25.3333 20.5333 24.1666C20.5333 23.9833 20.5167 23.7833 20.4833 23.5833C20.3667 22.6999 19.9667 21.9166 19.3 21.2333C18.6167 20.5499 17.7833 20.1166 16.8667 19.9999C16.7833 19.9833 16.65 19.9833 16.5 19.9833Z" fill="#2E2E2E"/>
<path d="M26.8667 21.2167C26.1833 21.2167 25.6167 20.65 25.6167 19.9667C25.6167 17.1834 23.35 14.9 20.55 14.9C19.8667 14.9 19.3 14.3334 19.3 13.65C19.3 12.9667 19.8667 12.4 20.55 12.4C24.7167 12.4 28.1167 15.7834 28.1167 19.9667C28.1167 20.65 27.5667 21.2167 26.8667 21.2167Z" fill="#2E2E2E"/>
</svg>
