<svg width="80" height="80" viewBox="0 0 80 80" fill="none" xmlns="http://www.w3.org/2000/svg">
<path d="M59.0103 37.8033C59.5937 37.7333 60.1537 37.73 60.667 37.8033C60.9637 37.12 61.017 35.9433 60.747 34.6633C60.3503 32.76 59.8103 31.6067 58.697 31.7867C57.5837 31.9667 57.5437 33.3467 57.9403 35.25C58.1703 36.32 58.567 37.2367 59.0103 37.8033Z" fill="#2E2E2E"/>
<path d="M49.4604 39.31C50.257 39.66 50.747 39.89 50.937 39.69C51.0604 39.5633 51.0237 39.3233 50.8337 39.0133C50.4404 38.3733 49.6337 37.7233 48.777 37.3567C47.0237 36.6033 44.9337 36.8533 43.3204 38.0133C42.787 38.4033 42.2837 38.9433 42.3537 39.2733C42.377 39.38 42.457 39.46 42.6437 39.4867C43.0837 39.5367 44.617 38.76 46.3837 38.6533C47.6304 38.57 48.6637 38.96 49.4604 39.31Z" fill="#2E2E2E"/>
<path d="M47.8603 40.2233C46.8236 40.3867 46.2503 40.73 45.8836 41.0467C45.5703 41.32 45.377 41.6233 45.377 41.8367C45.377 41.9367 45.4203 41.9967 45.457 42.0267C45.5036 42.07 45.5603 42.09 45.627 42.09C45.8603 42.09 46.387 41.88 46.387 41.88C47.8303 41.3633 48.7803 41.4267 49.7236 41.5333C50.2436 41.5933 50.4903 41.6233 50.6036 41.4467C50.637 41.3967 50.677 41.2833 50.5736 41.1167C50.3336 40.72 49.287 40.0533 47.8603 40.2233Z" fill="#2E2E2E"/>
<path d="M55.787 43.5767C56.4904 43.9233 57.267 43.7867 57.517 43.2733C57.7704 42.76 57.4037 42.0633 56.7004 41.7167C55.997 41.37 55.2204 41.5067 54.9704 42.02C54.717 42.5367 55.0837 43.2333 55.787 43.5767Z" fill="#2E2E2E"/>
<path d="M60.3103 39.6233C59.737 39.6133 59.2636 40.24 59.2503 41.0266C59.237 41.81 59.6903 42.4533 60.2603 42.4633C60.8336 42.4733 61.307 41.8467 61.3203 41.06C61.337 40.2767 60.8836 39.6333 60.3103 39.6233Z" fill="#2E2E2E"/>
<path d="M21.9001 53.7633C21.7568 53.5833 21.5235 53.64 21.2968 53.6933C21.1401 53.73 20.9601 53.7733 20.7635 53.77C20.3435 53.7633 19.9868 53.5833 19.7868 53.2733C19.5268 52.8733 19.5401 52.2767 19.8301 51.5933C19.8701 51.5 19.9135 51.4 19.9635 51.2867C20.4235 50.2567 21.1901 48.5367 20.3268 46.8933C19.6768 45.6567 18.6201 44.89 17.3468 44.7267C16.1268 44.5733 14.8668 45.0233 14.0668 45.91C12.8001 47.3067 12.6035 49.2033 12.8501 49.8767C12.9401 50.1233 13.0801 50.19 13.1835 50.2033C13.4001 50.2333 13.7168 50.0767 13.9168 49.54C13.9301 49.5 13.9501 49.44 13.9735 49.3667C14.0635 49.0833 14.2268 48.5567 14.5001 48.1333C14.8268 47.6233 15.3368 47.27 15.9335 47.1433C16.5435 47.0133 17.1635 47.13 17.6835 47.47C18.5701 48.05 18.9101 49.1367 18.5335 50.1733C18.3368 50.71 18.0201 51.7333 18.0901 52.5767C18.2301 54.28 19.2801 54.9667 20.2201 55.0367C21.1368 55.07 21.7768 54.5567 21.9368 54.18C22.0335 53.9567 21.9535 53.8233 21.9001 53.7633Z" fill="#2E2E2E"/>
<path d="M74.7402 50.6466C74.7069 50.5232 74.4769 49.6932 74.1669 48.6932C73.8535 47.6932 73.5335 46.9899 73.5335 46.9899C74.7835 45.1166 74.8069 43.4399 74.6402 42.4932C74.4635 41.3166 73.9735 40.3132 72.9869 39.2799C72.0002 38.2432 69.9802 37.1832 67.1435 36.3866C66.8202 36.2966 65.7502 36.0032 65.6535 35.9732C65.6469 35.9132 65.5769 32.4632 65.5102 30.9832C65.4635 29.9132 65.3702 28.2432 64.8535 26.5999C64.2369 24.3732 63.1602 22.4266 61.8169 21.1799C65.5235 17.3366 67.8369 13.1066 67.8302 9.47323C67.8202 2.48989 59.2435 0.376562 48.6769 4.75323C48.6669 4.75656 46.4535 5.69656 46.4369 5.70323C46.4269 5.69323 42.3902 1.72989 42.3269 1.67989C30.2835 -8.83011 -7.38648 33.0432 4.65685 43.2132L7.29018 45.4432C6.60685 47.2132 6.34018 49.2399 6.55685 51.4166C6.83685 54.2166 8.28352 56.8999 10.6235 58.9699C12.8435 60.9366 15.7669 62.1832 18.6002 62.1799C23.2869 72.9799 33.9969 79.6066 46.5535 79.9799C60.0235 80.3799 71.3302 74.0599 76.0669 62.7066C76.3769 61.9099 77.6902 58.3199 77.6902 55.1499C77.6902 51.9666 75.8869 50.6466 74.7402 50.6466ZM19.6335 59.1499C19.2235 59.2199 18.8069 59.2466 18.3869 59.2366C14.3202 59.1266 9.92352 55.4666 9.48685 51.1232C9.00352 46.3232 11.4569 42.6266 15.8002 41.7532C16.3202 41.6499 16.9469 41.5866 17.6235 41.6232C20.0569 41.7566 23.6435 43.6266 24.4635 48.9266C25.1869 53.6166 24.0369 58.3966 19.6335 59.1499ZM15.0902 38.8766C12.3869 39.4032 10.0035 40.9332 8.54685 43.0499C7.67685 42.3232 6.05352 40.9166 5.76685 40.3699C3.44018 35.9532 8.30685 27.3666 11.7035 22.5166C20.1035 10.5299 33.2602 1.45656 39.3502 3.10323C40.3402 3.38323 43.6202 7.18656 43.6202 7.18656C43.6202 7.18656 37.5335 10.5632 31.8869 15.2732C24.2802 21.1266 18.5335 29.6399 15.0902 38.8766ZM57.7902 57.3532C57.8769 57.3166 57.9402 57.2132 57.9302 57.1132C57.9169 56.9899 57.8069 56.8999 57.6835 56.9132C57.6835 56.9132 51.3102 57.8566 45.2902 55.6532C45.9469 53.5232 47.6902 54.2932 50.3235 54.5032C55.0735 54.7866 59.3302 54.0932 62.4769 53.1899C65.2035 52.4066 68.7835 50.8632 71.5668 48.6699C72.5035 50.7299 72.8369 52.9999 72.8369 52.9999C72.8369 52.9999 73.5635 52.8699 74.1702 53.2432C74.7435 53.5966 75.1635 54.3299 74.8769 56.2266C74.2935 59.7699 72.7869 62.6466 70.2535 65.2932C68.7135 66.9532 66.8435 68.3932 64.7002 69.4432C63.5635 70.0399 62.3535 70.5566 61.0735 70.9732C51.5302 74.0899 41.7635 70.6632 38.6135 63.3032C38.3635 62.7499 38.1502 62.1699 37.9835 61.5666C36.6402 56.7166 37.7802 50.8999 41.3435 47.2366C41.5635 47.0032 41.7869 46.7266 41.7869 46.3799C41.7869 46.0899 41.6035 45.7866 41.4435 45.5699C40.1968 43.7632 35.8835 40.6832 36.7469 34.7232C37.3702 30.4432 41.1135 27.4266 44.6035 27.6066C44.8969 27.6232 45.1935 27.6399 45.4869 27.6566C47.0002 27.7466 48.3202 27.9399 49.5635 27.9932C51.6469 28.0832 53.5235 27.7799 55.7402 25.9299C56.4902 25.3066 57.0902 24.7632 58.1068 24.5932C58.2135 24.5766 58.4802 24.4799 59.0102 24.5032C59.5535 24.5332 60.0669 24.6799 60.5302 24.9899C62.3102 26.1732 62.5635 29.0432 62.6535 31.1399C62.7069 32.3366 62.8502 35.2366 62.9002 36.0666C63.0135 37.9699 63.5135 38.2366 64.5235 38.5699C65.0935 38.7566 65.6202 38.8966 66.4002 39.1166C68.7569 39.7766 70.1535 40.4499 71.0335 41.3099C71.5602 41.8499 71.8035 42.4199 71.8769 42.9666C72.1535 44.9932 70.3035 47.4966 65.4035 49.7699C60.0469 52.2566 53.5502 52.8866 49.0602 52.3866C48.7169 52.3466 47.4902 52.2099 47.4869 52.2099C43.8969 51.7266 41.8469 56.3666 44.0035 59.5466C45.3935 61.5966 49.1769 62.9299 52.9635 62.9299C61.6435 62.9299 68.3169 59.2232 70.7969 56.0232C70.8702 55.9266 70.8769 55.9166 70.9969 55.7399C71.1202 55.5566 71.0169 55.4532 70.8669 55.5599C68.8402 56.9466 59.8335 62.4566 50.2002 60.7999C50.2002 60.7999 49.0302 60.6066 47.9602 60.1932C47.1102 59.8632 45.3335 59.0466 45.1169 57.2232C52.8969 59.6266 57.7902 57.3532 57.7902 57.3532ZM30.6035 22.4666C33.5902 19.0166 37.2669 16.0166 40.5602 14.3299C40.6735 14.2732 40.7935 14.3966 40.7335 14.5066C40.4735 14.9799 39.9702 15.9932 39.8102 16.7632C39.7869 16.8832 39.9169 16.9732 40.0169 16.9032C42.0669 15.5066 45.6302 14.0099 48.7569 13.8166C48.8902 13.8099 48.9569 13.9799 48.8502 14.0632C48.3735 14.4266 47.8535 14.9332 47.4769 15.4432C47.4135 15.5299 47.4735 15.6566 47.5802 15.6566C49.7769 15.6732 52.8702 16.4399 54.8869 17.5699C55.0235 17.6466 54.9268 17.9099 54.7735 17.8766C51.7235 17.1766 46.7269 16.6466 41.5369 17.9132C36.9035 19.0432 33.3702 20.7866 30.7902 22.6632C30.6569 22.7599 30.5002 22.5899 30.6035 22.4666Z" fill="#2E2E2E"/>
</svg>
