<svg width="41" height="40" viewBox="0 0 41 40" fill="none" xmlns="http://www.w3.org/2000/svg">
<path d="M13 17.5C14.3807 17.5 15.5 16.3807 15.5 15C15.5 13.6193 14.3807 12.5 13 12.5C11.6193 12.5 10.5 13.6193 10.5 15C10.5 16.3807 11.6193 17.5 13 17.5Z" fill="#2E2E2E"/>
<path d="M20.5 13.75C21.8807 13.75 23 12.6307 23 11.25C23 9.86929 21.8807 8.75 20.5 8.75C19.1193 8.75 18 9.86929 18 11.25C18 12.6307 19.1193 13.75 20.5 13.75Z" fill="#2E2E2E"/>
<path d="M28 17.5C29.3807 17.5 30.5 16.3807 30.5 15C30.5 13.6193 29.3807 12.5 28 12.5C26.6193 12.5 25.5 13.6193 25.5 15C25.5 16.3807 26.6193 17.5 28 17.5Z" fill="#2E2E2E"/>
<path d="M29.25 25C30.6307 25 31.75 23.8807 31.75 22.5C31.75 21.1193 30.6307 20 29.25 20C27.8693 20 26.75 21.1193 26.75 22.5C26.75 23.8807 27.8693 25 29.25 25Z" fill="#2E2E2E"/>
<path d="M24.25 31.25C25.6307 31.25 26.75 30.1307 26.75 28.75C26.75 27.3693 25.6307 26.25 24.25 26.25C22.8693 26.25 21.75 27.3693 21.75 28.75C21.75 30.1307 22.8693 31.25 24.25 31.25Z" fill="#2E2E2E"/>
<path d="M21.175 2.50002C18.8207 2.40915 16.4723 2.7946 14.2706 3.63328C12.0688 4.47196 10.0591 5.74659 8.36193 7.38075C6.66473 9.01492 5.31499 10.975 4.39363 13.1434C3.47226 15.3118 2.99825 17.644 3 20C2.99994 20.9267 3.21362 21.8409 3.62443 22.6715C4.03524 23.5021 4.63211 24.2267 5.36862 24.7891C6.10512 25.3515 6.96142 25.7364 7.87091 25.9139C8.78041 26.0914 9.71859 26.0567 10.6125 25.8125L12.0125 25.425C12.5694 25.273 13.1539 25.2516 13.7205 25.3625C14.287 25.4734 14.8203 25.7137 15.2788 26.0645C15.7373 26.4153 16.1086 26.8672 16.3638 27.3851C16.619 27.9029 16.7511 28.4727 16.75 29.05V33.75C16.75 34.7446 17.1451 35.6984 17.8483 36.4017C18.5516 37.1049 19.5054 37.5 20.5 37.5C22.8561 37.5018 25.1882 37.0278 27.3566 36.1064C29.525 35.185 31.4851 33.8353 33.1193 32.1381C34.7534 30.4409 36.0281 28.4312 36.8667 26.2295C37.7054 24.0277 38.0909 21.6793 38 19.325C37.8186 14.9209 35.9878 10.7459 32.8709 7.62909C29.7541 4.51224 25.5792 2.68139 21.175 2.50002ZM31.3125 30.3875C29.9168 31.8488 28.2386 33.0112 26.3799 33.8041C24.5212 34.597 22.5208 35.0039 20.5 35C20.1685 35 19.8505 34.8683 19.6161 34.6339C19.3817 34.3995 19.25 34.0815 19.25 33.75V29.05C19.25 27.3924 18.5915 25.8027 17.4194 24.6306C16.2473 23.4585 14.6576 22.8 13 22.8C12.4383 22.801 11.8792 22.8767 11.3375 23.025L9.9375 23.4125C9.4146 23.5527 8.86645 23.5705 8.33555 23.4646C7.80465 23.3587 7.30528 23.132 6.87614 22.802C6.44701 22.472 6.09965 22.0475 5.861 21.5616C5.62235 21.0757 5.49882 20.5414 5.5 20C5.49845 17.9798 5.90502 15.98 6.69531 14.1208C7.4856 12.2615 8.64333 10.581 10.099 9.18018C11.5547 7.77934 13.2784 6.687 15.1667 5.96869C17.0549 5.25037 19.0688 4.9209 21.0875 5.00002C24.8465 5.1958 28.3997 6.77711 31.0613 9.43871C33.7229 12.1003 35.3042 15.6535 35.5 19.4125C35.586 21.4325 35.2591 23.4488 34.539 25.338C33.819 27.2272 32.7211 28.9497 31.3125 30.4V30.3875Z" fill="#2E2E2E"/>
</svg>
