<svg width="80" height="80" viewBox="0 0 80 80" fill="none" xmlns="http://www.w3.org/2000/svg">
<path d="M62.2749 8.95125C59.1724 6.95 57.2086 7.81 56.2549 8.58625C55.1861 7.86625 54.1136 7.2625 53.0499 6.83875C50.1224 5.67125 45.3636 5 39.9999 5C34.6336 5 29.8774 5.67125 26.9486 6.84C25.8849 7.26375 24.8099 7.86875 23.7411 8.58875C22.7849 7.81375 20.8249 6.95875 17.7249 8.9575C11.0011 13.2875 -3.40261 11.5712 5.12364 30.2362C6.49364 33.2325 7.54864 35.35 8.47489 36.5275C8.38989 47.3525 11.9561 61.525 19.0374 66.1275C27.4661 71.605 34.0174 75 40.6249 75C47.2299 75 53.7824 71.605 62.2099 66.1263C69.3924 61.4613 72.0286 47.0337 71.6337 36.38C72.5324 35.1788 73.5599 33.1112 74.8762 30.23C83.4012 11.565 68.9986 13.2812 62.2749 8.95125ZM60.8474 64.0312C52.8024 69.2588 46.6136 72.5 40.6249 72.5C34.6349 72.5 28.4449 69.2588 20.3999 64.0312C14.4036 60.1337 11.0999 47.1962 10.9986 37.1888C12.1124 36.1975 13.3124 33.4475 15.0149 28.7575C16.4011 24.935 16.3524 22.055 16.7011 19.4688C19.8986 14.8775 24.0711 10.68 27.8761 9.16125C30.4799 8.12125 35.0136 7.5 39.9999 7.5C44.9861 7.5 49.5174 8.12125 52.1249 9.16125C55.9311 10.68 60.1061 14.88 63.3011 19.4738C63.6474 22.0563 63.6011 24.935 64.9861 28.7512C66.8024 33.7512 68.0449 36.5462 69.2224 37.3525C69.4674 47.47 66.7499 60.1962 60.8474 64.0312Z" fill="#2E2E2E"/>
<path d="M30.311 38.4137C30.311 33.925 26.666 30.2737 22.186 30.2737C17.706 30.2737 14.061 33.925 14.061 38.4137C14.061 42.9037 17.706 46.5562 22.186 46.5562C26.666 46.5562 30.311 42.9037 30.311 38.4137ZM17.0985 43.0337C18.0388 43.6962 19.1609 44.0516 20.311 44.0512C23.4173 44.0512 25.936 41.5287 25.936 38.4137C25.9374 36.9205 25.3455 35.4878 24.2907 34.4308C23.2358 33.3739 21.8043 32.7791 20.311 32.7775C19.1135 32.7775 18.0098 33.1587 17.0973 33.7975C17.7386 33.0828 18.523 32.511 19.3998 32.1192C20.2765 31.7275 21.2258 31.5246 22.186 31.5237C25.976 31.5237 29.061 34.615 29.061 38.4137C29.061 42.2137 25.976 45.3062 22.186 45.3062C21.2261 45.3054 20.2771 45.1026 19.4006 44.7111C18.5241 44.3196 17.7398 43.7481 17.0985 43.0337ZM57.8123 30.2737C53.3323 30.2737 49.6873 33.925 49.6873 38.4137C49.6873 42.9037 53.3323 46.5562 57.8123 46.5562C62.2923 46.5562 65.9373 42.9037 65.9373 38.4137C65.9373 33.9262 62.2923 30.2737 57.8123 30.2737ZM57.8123 45.3062C54.0235 45.3062 50.9373 42.2137 50.9373 38.4137C50.9373 34.615 54.0235 31.5237 57.8123 31.5237C59.831 31.5237 61.6423 32.405 62.9023 33.7975C61.9614 33.1341 60.8385 32.7779 59.6873 32.7775C58.194 32.7791 56.7625 33.3739 55.7077 34.4308C54.6528 35.4878 54.061 36.9205 54.0623 38.4137C54.0615 39.1533 54.2063 39.8857 54.4885 40.5692C54.7708 41.2527 55.1849 41.874 55.7072 42.3975C56.2295 42.921 56.8499 43.3364 57.5328 43.6202C58.2157 43.904 58.9478 44.0504 59.6873 44.0512C60.8835 44.0512 61.9898 43.6712 62.8998 43.0337C62.2587 43.7483 61.4744 44.3199 60.5979 44.7114C59.7214 45.1029 58.7723 45.3056 57.8123 45.3062Z" fill="#2E2E2E"/>
<path d="M51.3189 43.4713C48.6401 40.6825 44.5151 39.0825 39.9964 39.0825C35.4814 39.0825 31.3589 40.6813 28.6876 43.4725L19.7551 52.8213C16.9976 55.7075 16.9976 60.4013 19.7551 63.29C21.0976 64.6938 22.8876 65.4675 24.7939 65.4675C26.3496 65.4656 27.859 64.9374 29.0764 63.9688L32.4726 67.525C34.2576 69.3838 37.0014 70.4488 40.0014 70.4488C43.0001 70.4488 45.7414 69.3825 47.5214 67.5238L50.9226 63.9663C52.1392 64.9367 53.6489 65.4659 55.2051 65.4675C57.1114 65.4675 58.9014 64.6938 60.2464 63.2888C63.0001 60.4013 63.0001 55.7075 60.2464 52.8213L51.3189 43.4713ZM46.6189 66.6588C45.0764 68.2725 42.6614 69.1975 40.0026 69.1975C37.3401 69.1975 34.9239 68.2725 33.3764 66.66L29.9976 63.1213L33.3301 59.635L34.6526 58.2538C34.0576 59.9913 33.8451 61.425 34.0339 62.52C34.6251 65.9713 37.4564 67.515 40.0001 67.515C42.5451 67.515 45.3764 65.9713 45.9676 62.5213C46.1551 61.4238 45.9426 59.99 45.3476 58.2488L50.0039 63.1188L46.6189 66.6588ZM59.3414 62.425C58.8105 62.99 58.1698 63.4404 57.4585 63.7487C56.7472 64.0569 55.9804 64.2165 55.2051 64.2175C53.7839 64.2175 52.4514 63.6663 51.3839 62.6963L51.3176 62.635C51.2367 62.5617 51.1529 62.4916 51.0664 62.425L43.1339 54.1263L42.1351 53.08C41.6051 52.5275 40.8289 52.21 40.0001 52.21C39.1714 52.21 38.3951 52.5275 37.8676 53.0788L36.8664 54.1263L28.8426 62.5C28.7866 62.5441 28.732 62.5899 28.6789 62.6375L28.6164 62.6963C27.5501 63.665 26.2176 64.2175 24.7939 64.2175C23.2314 64.2175 21.7626 63.58 20.6589 62.425C18.3564 60.0138 18.3564 56.0938 20.6589 53.6838L29.5914 44.3363C32.0264 41.7925 35.8201 40.3325 39.9964 40.3325C44.1751 40.3325 47.9739 41.7925 50.4151 44.335L59.3414 53.6838C61.6426 56.0938 61.6426 60.0163 59.3414 62.425Z" fill="#2E2E2E"/>
<path d="M40 40.6387C35.9288 40.6387 32.6275 41.2737 32.6275 44.5675C32.6275 47.185 38.4925 49.5062 40 49.5062C41.505 49.5062 47.3738 47.185 47.3738 44.5675C47.3725 41.2737 44.0725 40.6387 40 40.6387ZM31.6413 48.7512L30.3913 47.4987L29.1413 48.7537L30.3913 50.0062L31.6413 48.7512ZM27.415 53.4487L26.165 52.1987L27.4163 50.9475L28.6663 52.1975L27.415 53.4487ZM30.0788 53.4512L31.3288 54.7037L32.5788 53.4487L31.3288 52.1962L30.0788 53.4512ZM48.3575 48.7512L49.6075 50.0062L50.8575 48.7537L49.6075 47.4987L48.3575 48.7512ZM52.5838 53.4475L51.3338 52.195L52.5838 50.9462L53.8338 52.2L52.5838 53.4475ZM47.42 53.4487L48.67 54.7037L49.92 53.4512L48.67 52.1962L47.42 53.4487Z" fill="#2E2E2E"/>
</svg>
