<svg width="80" height="80" viewBox="0 0 80 80" fill="none" xmlns="http://www.w3.org/2000/svg">
<path d="M56.4062 35.3125C60.2895 35.3125 63.4375 32.1645 63.4375 28.2812C63.4375 24.398 60.2895 21.25 56.4062 21.25C52.523 21.25 49.375 24.398 49.375 28.2812C49.375 32.1645 52.523 35.3125 56.4062 35.3125Z" fill="#2E2E2E"/>
<path d="M23.5938 35.3125C27.477 35.3125 30.625 32.1645 30.625 28.2812C30.625 24.398 27.477 21.25 23.5938 21.25C19.7105 21.25 16.5625 24.398 16.5625 28.2812C16.5625 32.1645 19.7105 35.3125 23.5938 35.3125Z" fill="#2E2E2E"/>
<path d="M56.5425 7.325C56.4137 7.325 56.29 7.3425 56.1613 7.345C57.1443 6.18304 58.0109 4.92744 58.7487 3.59625C58.7487 3.59625 48.815 11.26 39.9987 2.5C31.1825 11.26 21.2488 3.59625 21.2488 3.59625C21.9862 4.9271 22.852 6.18265 23.8337 7.345C23.7062 7.3425 23.5825 7.325 23.4538 7.325C11.9013 7.325 2.5 16.7262 2.5 28.2812C2.5 34.175 4.95375 39.4987 8.8825 43.3088C9.42875 49.7038 11.695 59.8938 20.1362 66.3675C19.2062 66.6288 18.4412 67.3563 18.4412 68.565C18.4412 71.6513 20.9412 76.2487 20.9412 76.2487C20.9412 76.2487 22.3263 73.6975 23.035 71.12C23.7437 74.3325 25.12 77.5 25.12 77.5C25.12 77.5 26.4975 74.3325 27.2075 71.1212C27.915 73.6987 29.2987 76.25 29.2987 76.25C29.2987 76.25 30.21 74.5713 30.9313 72.565C33.8149 73.7219 36.8929 74.318 40 74.3213C43.175 74.3213 46.2238 73.6975 49.0675 72.565C49.79 74.5713 50.6987 76.25 50.6987 76.25C50.6987 76.25 52.085 73.6987 52.7938 71.1212C53.5025 74.3325 54.8775 77.5 54.8775 77.5C54.8775 77.5 56.255 74.3325 56.965 71.1212C57.6737 73.6987 59.0575 76.25 59.0575 76.25C59.0575 76.25 61.5575 71.6513 61.5575 68.5663C61.5575 67.3575 60.7937 66.63 59.8637 66.3688C68.3037 59.8938 70.57 49.705 71.1162 43.31C75.045 39.4987 77.5 34.175 77.5 28.2812C77.5 16.7262 68.0988 7.325 56.5425 7.325ZM42.825 12.8638C44.1237 10.2763 45.86 8.35875 45.86 8.35875C45.86 8.35875 45.4987 10.6425 44.205 13.2288C43.3792 14.847 42.361 16.3597 41.1725 17.7338C41.1725 17.7338 41.5312 15.45 42.825 12.8638ZM40 4.84375C40 4.84375 40.5863 7.99375 40.5863 11.875C40.5863 15.7563 40 18.9062 40 18.9062C40 18.9062 39.4137 15.7563 39.4137 11.875C39.4137 7.99375 40 4.84375 40 4.84375ZM28.6475 56.1925L30.5837 54.0025L32.5212 56.1925L34.4575 58.3825L32.5212 60.5725L30.5837 62.7637L28.6475 60.5725L26.71 58.3825L28.6475 56.1925ZM25.8763 57.4388L23.9387 55.2488L22.0025 53.0587L25.47 49.1338C25.7137 49.11 25.9513 49.0675 26.1925 49.0363L29.7487 53.0587L27.8113 55.2488L25.8763 57.4388ZM31.4188 53.0587L35.2912 48.6775L39.1663 53.0587L37.2288 55.2488L35.2912 57.4388L33.355 55.2488L31.4188 53.0587ZM33.355 61.5175L35.2912 59.3262L37.2288 61.5175L39.1663 63.7075L35.2912 68.0888L31.4188 63.7075L33.355 61.5175ZM38.0625 60.5725L36.125 58.3825L38.0625 56.1925L40 54.0025L41.9362 56.1925L43.8737 58.3825L41.9362 60.5725L40 62.7637L38.0625 60.5725ZM40.8337 53.0587L44.7075 48.6775L48.58 53.0587L46.6437 55.2488L44.7075 57.4388L42.7712 55.2488L40.8337 53.0587ZM42.7712 61.5175L44.7075 59.3262L46.6437 61.5175L48.58 63.7075L44.7075 68.0888L40.8337 63.7075L42.7712 61.5175ZM47.4775 60.5725L45.5412 58.3825L47.4775 56.1925L49.4137 54.0025L51.3512 56.1925L53.2887 58.3825L51.3512 60.5725L49.4137 62.7637L47.4775 60.5725ZM52.185 55.2488L50.2488 53.0587L53.805 49.0363C54.045 49.0675 54.2825 49.1112 54.5262 49.1338L57.995 53.0587L56.0588 55.2488L54.1213 57.4388L52.185 55.2488ZM49.4137 52.115L44.7062 46.79L40 52.115L35.29 46.79L30.5825 52.115L27.6625 48.8112C30.5254 48.2199 33.23 47.0274 35.5975 45.3125C36.4812 47.0388 37.7094 48.5656 39.2062 49.7988L40 50.45L40.7925 49.7988C42.2896 48.566 43.5179 47.039 44.4012 45.3125C46.7692 47.0266 49.4737 48.2191 52.3363 48.8112L49.4137 52.115ZM40 47.155C37.7738 44.9637 36.5138 41.9837 36.5138 38.8288C36.5138 35.6737 37.7738 32.6938 40 30.5025C42.2262 32.6938 43.4837 35.6737 43.4837 38.8288C43.4837 41.9837 42.2262 44.9637 40 47.155ZM37.1725 12.8638C38.4663 15.45 38.8275 17.7338 38.8275 17.7338C38.8275 17.7338 37.0913 15.8162 35.7925 13.2288C34.4988 10.6425 34.14 8.35875 34.14 8.35875C34.14 8.35875 35.8763 10.2763 37.1725 12.8638ZM7.1875 28.2812C7.1875 19.2225 14.535 11.875 23.5938 11.875C32.3037 11.875 39.4113 18.6725 39.9475 27.2487L39.2062 27.8563C37.5807 29.1849 36.2713 30.8588 35.3731 32.7565C34.475 34.6542 34.0106 36.728 34.0138 38.8275C34.0138 39.4975 34.0775 40.1575 34.1687 40.8112C31.2154 43.3173 27.467 44.6913 23.5938 44.6875C14.535 44.6875 7.1875 37.34 7.1875 28.2812ZM21.3562 49.1312C22.054 49.202 22.7549 49.2375 23.4562 49.2375C23.5462 49.2375 23.635 49.225 23.7263 49.2238L21.3188 51.9463C21.3055 51.0077 21.318 50.0691 21.3562 49.1312ZM21.4037 54.2688L23.105 56.1925L25.0413 58.3825L23.105 60.5725L22.4088 61.36C21.8867 59.0266 21.5506 56.6554 21.4037 54.2688ZM24.13 65.2588C23.8056 64.9537 23.4888 64.6407 23.18 64.32C23.0359 63.8288 22.8992 63.3354 22.77 62.84L23.94 61.5163L25.8775 59.325L27.8137 61.5163L29.7513 63.7062L27.2925 66.4875C26.6787 65.1475 25.2588 64.7363 24.13 65.2588ZM48.1987 68.5663C48.1987 69.0612 48.27 69.5987 48.3775 70.1475C45.7525 71.2275 42.935 71.8225 40.0013 71.8225C37.0675 71.8225 34.2487 71.2275 31.6237 70.1475C31.7325 69.6 31.8013 69.0625 31.8013 68.5663C31.8013 66.955 30.445 66.2088 29.145 66.2812L30.585 64.6513L35.2925 69.9762L40 64.6513L44.7075 69.9762L49.415 64.6513L50.8563 66.2812C49.5563 66.2088 48.1987 66.9538 48.1987 68.5663ZM56.8188 64.32C56.5088 64.6413 56.1912 64.955 55.8688 65.2588C54.7412 64.7363 53.32 65.1475 52.7075 66.4875L50.2488 63.7062L52.185 61.5163L54.1225 59.325L56.06 61.5163L57.23 62.84C57.0913 63.37 56.9538 63.8625 56.8188 64.32ZM57.59 61.36L56.8925 60.5725L54.955 58.3825L56.8925 56.1925L58.5938 54.2688C58.4212 57.0312 58.0325 59.3938 57.59 61.36ZM56.2725 49.2238C56.365 49.225 56.4538 49.2375 56.5438 49.2375C57.2525 49.2375 57.9525 49.2013 58.6438 49.1312C58.6825 50.1063 58.695 51.045 58.6813 51.9475L56.2725 49.2238ZM56.4062 44.6875C52.5325 44.6916 48.7837 43.3176 45.83 40.8112C45.9213 40.1587 45.9837 39.4975 45.9837 38.8275C45.9837 34.5625 44.0912 30.5637 40.7925 27.8563L40.0513 27.2487C40.5875 18.6725 47.695 11.875 56.4062 11.875C65.4637 11.875 72.8125 19.2225 72.8125 28.2812C72.8125 37.34 65.4637 44.6875 56.4062 44.6875Z" fill="#2E2E2E"/>
</svg>
