<svg width="80" height="80" viewBox="0 0 80 80" fill="none" xmlns="http://www.w3.org/2000/svg">
<path d="M63.5887 33.7575C59.38 29.3775 54.4112 26.7112 48.6787 26.5437V33.9537L59.4287 38.2425L63.5887 33.7575Z" fill="#2E2E2E"/>
<path d="M19.7763 17.2038C21.438 17.2038 22.7851 15.8035 22.7851 14.0763C22.7851 12.349 21.438 10.9488 19.7763 10.9488C18.1146 10.9488 16.7676 12.349 16.7676 14.0763C16.7676 15.8035 18.1146 17.2038 19.7763 17.2038Z" fill="#2E2E2E"/>
<path d="M7.08252 15.1125L7.93002 14.6962L8.24752 13.71L7.40127 14.1262L7.08252 15.1125Z" fill="#2E2E2E"/>
<path d="M74.8263 53.3475C74.3188 52.8788 73.4663 52.4037 72.6213 52.1637C71.3513 45.5125 68.62 39.635 64.885 35.1962L60.3425 40.0763L62.5525 51.8962C61.9825 51.94 61.4263 51.9938 60.9063 52.0475L58.9488 40.0838L47.8188 35.3813L36.6838 40.0838L34.7263 52.06C34.1779 51.9998 33.6276 51.9598 33.0763 51.94L35.2975 40.0763L32.6463 37.2337C32.6963 36.7513 32.7438 36.315 32.7725 36.1262C32.8963 35.715 33.0063 35.3213 33.1213 34.9175L36.2075 38.2425L46.9788 33.945V26.545C42.075 26.6875 37.72 28.67 33.9263 31.9775C36.8225 20.6925 36.53 12.9525 33.025 8.965C30.7775 6.4075 26.835 5 21.925 5C14.78 5 5.79377 8.15875 3.21502 14.0112C2.38002 15.9075 1.54002 19.7587 5.28502 24.2712L6.50877 25.745L6.91752 25.5175C7.19627 29.6237 9.44252 34.0788 17.8713 34.0788C18.365 34.0788 18.5038 34.23 18.5788 34.3138C19.7413 35.5863 19.4963 40.5138 19.3163 44.1125C19.06 49.2488 18.8175 54.0988 21.1313 56.6325C21.4013 56.9287 21.705 57.1712 22.0263 57.3862C22.34 58.9625 23.0338 60.2763 24.1525 61.3675C23.1838 64.1038 22.4613 66.9863 22.2575 69.435C21.3825 70.1 20.2975 72.4362 20.2975 76.3812C20.2975 77.79 26.4713 77.905 27.3538 76.54C27.845 76.585 28.37 76.61 28.9438 76.61C32.875 76.61 37.4988 75.5938 37.6938 75.5488L38.8838 75.285L38.5863 74.0588C38.3563 73.1175 38.2325 72.0775 38.1738 70.995C41.035 70.9512 44.325 70.325 44.325 70.325C43.9488 68.9925 43.9025 67.415 44.0175 65.8325C46.5927 65.8878 49.1687 65.8862 51.7438 65.8275C51.22 67.1562 51.0725 68.355 51.6288 69.0513C52.8675 70.5925 59.1925 71.0013 59.1925 71.0013C59.1313 70.2188 59.2275 69.3725 59.4025 68.5225L59.4438 68.5938C60.4838 70.17 61.6825 71.4925 62.89 72.4538C63.0738 73.5163 63.5525 74.8737 64.5 76.3988C65.0613 77.3063 68.9213 74.3625 69.28 72.8838C71.8188 70.72 74.4525 66.305 75.6913 64.07L76.5288 62.5588L74.875 62.2588C73.64 62.035 72.575 61.6625 71.6863 61.15C72.7138 60.0675 73.3538 58.7812 73.635 57.2425C73.9188 57.5687 74.1988 57.92 74.4663 58.3187C75.9088 60.4725 77.0988 62.94 77.4338 61.7475C77.7713 60.555 76.7925 55.1638 74.8263 53.3475ZM69.8388 59.5612C69.7241 59.4198 69.6156 59.2734 69.5138 59.1225C68.9263 58.215 68.635 57.2275 68.5 56.3312H71.3925C71.23 57.565 70.765 58.6425 69.8388 59.5612ZM22.1938 53.8938C19.8125 48.2375 24.9888 31.6388 17.8713 31.6388C10.99 31.6388 9.23252 28.46 9.23252 24.5775C9.23252 24.5775 9.82877 24.8575 10.9388 24.8575C12.715 24.8575 15.8063 24.1413 19.8725 20.4087C19.5988 20.4028 19.325 20.3998 19.0513 20.4C11.1838 20.4 7.06002 22.6775 7.06002 22.6775C-0.25123 13.8675 11.9475 7.4375 21.925 7.4375C25.8125 7.4375 29.3638 8.41375 31.29 10.6075C35.9125 15.8663 32.3363 29.4275 30.5013 35.4963C30.5 35.5012 30.4988 35.5125 30.4963 35.5175C28.7113 37.7837 27.1525 41.1625 24.7713 41.9588C22.6025 42.685 23.1388 48.7412 28.0113 51.3062C27.7075 52.2987 27.3663 53.1788 26.985 53.8938H22.1938ZM28.9425 74.1687C27.8438 74.1687 27.0713 74.08 26.51 73.9613C25.9535 72.8579 25.2934 71.8099 24.5388 70.8313C24.4988 65.5563 28.0463 56.9812 30.3275 54.405C30.6963 54.38 31.2888 54.35 31.9938 54.35C34.7113 54.35 36.8088 54.7737 37.9113 55.525C37.1913 58.1762 35.03 66.9638 36.0588 73.39C34.47 73.6875 31.5025 74.1687 28.9425 74.1687ZM38.6988 63.15C38.8825 61.9738 39.0913 60.8575 39.2988 59.8613C39.4088 60.18 39.5313 60.495 39.675 60.8C40.1013 61.6625 40.65 62.4462 41.31 63.075C41.3975 63.1587 41.4913 63.2363 41.5813 63.315C40.6197 63.2745 39.6587 63.2195 38.6988 63.15ZM53.0938 63.3488C51.3331 63.4039 49.5716 63.4305 47.81 63.4287C45.9038 63.4287 44.1525 63.4013 42.53 63.3488C42.2912 63.0642 42.0611 62.7724 41.84 62.4738C41.3308 61.7831 40.8868 61.0466 40.5138 60.2738C40.1765 59.5762 39.9009 58.8505 39.69 58.105C39.8625 57.3775 40.0138 56.7775 40.1325 56.3325H56.3475C56.255 56.8413 56.15 57.3387 56.0225 57.82C55.7951 58.6646 55.4892 59.4861 55.1088 60.2738C54.7348 61.0463 54.2905 61.7828 53.7813 62.4738C53.565 62.7725 53.33 63.06 53.0938 63.3488ZM54.04 63.315C54.13 63.2363 54.2225 63.1587 54.3113 63.075C54.9846 62.4174 55.5383 61.6476 55.9475 60.8C56.1075 60.4587 56.2425 60.1025 56.3613 59.7437C56.4575 60.8862 56.6463 62.0262 56.9588 63.1462C55.9868 63.2184 55.0138 63.2746 54.04 63.315ZM67.475 71.3088C66.035 70.5888 64.7238 70.2262 63.9175 70.1613C62.9437 69.2947 62.0891 68.3027 61.3763 67.2113C60.17 65.3813 57.6088 60.6063 59.0338 54.7275C60.3463 54.55 63.125 54.2137 65.2975 54.2137C65.575 54.2137 65.8325 54.22 66.0688 54.23C65.9813 55.7287 66.1138 58.225 67.5513 60.46C68.72 62.2775 70.4938 63.5537 72.8413 64.2712C70.8938 67.535 68.7625 70.3163 67.475 71.3088Z" fill="#2E2E2E"/>
</svg>
