<svg width="80" height="80" viewBox="0 0 80 80" fill="none" xmlns="http://www.w3.org/2000/svg">
<path d="M67.0189 33.7812C64.3964 32.1525 62.3001 31.1062 60.6901 30.5437C60.221 27.6643 59.9903 24.7511 60.0001 21.8337C60.0001 11.1575 51.0451 2.5 40.0001 2.5C28.9551 2.5 20.0001 11.1575 20.0001 21.8337C20.0001 25.2025 19.7238 28.0363 19.3088 30.545C17.7013 31.1063 15.6038 32.1537 12.9801 33.7825C-0.474902 42.1312 2.1626 53.81 4.0626 52.4263C9.13385 48.735 13.2701 45.1188 16.3988 41.9012C15.6101 44.7062 15.0001 47.4813 15.0001 50.8337C15.0001 59.265 19.4726 66.68 26.2439 71.0025C26.4901 72.4662 26.8051 75.0913 26.0563 75.8037C25.3363 76.485 23.1038 75.66 22.0863 75.66C19.5526 75.6588 17.5001 77.5 17.5001 77.5H37.5026C37.5026 77.5 35.4488 75.6588 32.9176 75.6588C31.9001 75.6588 29.6651 76.4837 28.9476 75.8025C28.3889 75.275 28.4201 73.6925 28.5738 72.3112C32.0026 74.0187 35.8788 75 40.0001 75C44.1213 75 47.9976 74.02 51.4238 72.3138C51.5776 73.6937 51.6088 75.2787 51.0526 75.8063C50.3351 76.4875 48.1013 75.6625 47.0826 75.6625C44.5538 75.6612 42.5001 77.5 42.5001 77.5H62.5001C62.5001 77.5 60.4464 75.6612 57.9151 75.6612C56.8988 75.6612 54.6651 76.4863 53.9451 75.805C53.1951 75.0938 53.5101 72.4662 53.7576 71.0025C60.5276 66.68 65.0001 59.2663 65.0001 50.8337C65.0001 47.4813 64.3926 44.7062 63.6013 41.9012C66.7313 45.1188 70.8676 48.735 75.9376 52.4263C77.8376 53.81 80.4763 42.1312 67.0189 33.7812ZM40.0001 28.7938L34.3901 27.425C34.6051 24.0538 37.0388 21.3862 40.0001 21.3862C42.9589 21.3862 45.3926 24.0538 45.6076 27.425L40.0001 28.7938ZM44.1601 29.0662C43.5938 31.1287 41.9526 32.6362 40.0001 32.6362C38.0426 32.6362 36.4039 31.1288 35.8376 29.065L40.0001 30.08L44.1601 29.0662ZM40.0001 72.5825C29.6463 72.5825 20.0001 65.61 20.0001 51.1525C20.0001 43.1238 25.0001 35.57 25.0001 23.485C25.0001 8.8825 36.1964 10.725 37.5101 20.6713C34.9464 21.8025 33.1251 24.6175 33.1251 27.9113V28.4025L34.5113 28.7412C35.0238 31.6625 37.2626 33.8862 40.0001 33.8862C42.7351 33.8862 44.9739 31.6625 45.4838 28.7425L46.8751 28.4037V27.9125C46.8751 24.6187 45.0513 21.8038 42.4901 20.6725C43.8013 10.725 55.0001 8.885 55.0001 23.4862C55.0001 35.5713 60.0001 43.125 60.0001 51.1538C60.0001 65.61 50.3563 72.5825 40.0001 72.5825Z" fill="#2E2E2E"/>
<path d="M48.75 24.9613C50.1307 24.9613 51.25 23.2823 51.25 21.2113C51.25 19.1402 50.1307 17.4613 48.75 17.4613C47.3693 17.4613 46.25 19.1402 46.25 21.2113C46.25 23.2823 47.3693 24.9613 48.75 24.9613Z" fill="#2E2E2E"/>
<path d="M31.2475 17.4613C29.87 17.4613 28.75 19.1412 28.75 21.2087C28.75 23.2812 29.87 24.9613 31.2475 24.9613C32.6312 24.9613 33.75 23.2812 33.75 21.2087C33.75 19.1412 32.6312 17.4613 31.2475 17.4613ZM41.2162 21.9287C41.035 22.1362 41.1775 22.6325 41.5338 23.04C41.885 23.4462 42.32 23.6088 42.5 23.4013C42.6812 23.1963 42.5388 22.6975 42.185 22.2913C41.8313 21.885 41.3962 21.7212 41.2162 21.9287ZM37.8125 22.2913C37.4563 22.6975 37.3175 23.1963 37.495 23.4013C37.6775 23.6088 38.11 23.4462 38.4663 23.04C38.82 22.6337 38.9613 22.1362 38.7838 21.9287C38.6038 21.7212 38.1663 21.885 37.8125 22.2913Z" fill="#2E2E2E"/>
</svg>
