<svg width="80" height="80" viewBox="0 0 80 80" fill="none" xmlns="http://www.w3.org/2000/svg">
<path d="M77.0163 49.0912C77.2775 47.5675 77.3675 45.7488 77.1212 43.625L76.3938 37.3113L75.9225 37.8262C75.8302 36.5761 75.615 35.338 75.28 34.13C76.5987 26.4013 76.4688 16.35 74.85 4.0625L74.6462 2.5L73.0987 2.705C64.1625 3.905 55.7325 7.7375 49.3575 12.095C46.4663 11.47 43.3538 11.1375 39.9987 11.1375C36.6463 11.1375 33.5312 11.47 30.6413 12.095C24.2663 7.7375 15.8387 3.90375 6.9025 2.705L5.355 2.5L5.14875 4.0625C3.53 16.35 3.40125 26.4013 4.71875 34.13C4.38498 35.3383 4.16979 36.5762 4.07625 37.8262L3.60625 37.3125L2.87875 43.625C2.63375 45.7488 2.72375 47.5675 2.985 49.0912L2.5 48.9862V52.6C2.5 59.4113 7.3475 65.9012 16.15 70.8688C23.395 74.9587 32.5338 77.5 40 77.5C47.4663 77.5 56.605 74.9587 63.8512 70.8688C72.6537 65.9012 77.5 59.4113 77.5 52.6V48.9862L77.0163 49.0912ZM71.955 6.0725C72.9662 14.2925 73.2588 21.5238 72.87 27.6038C72.8338 26.7425 72.685 25.8825 72.355 25.0788L72.8838 25L70.7812 21.3675C71.2038 18.9037 71.5212 14.62 70.115 9.52625C65.2487 11.55 61.49 15.075 60.0838 16.5163C58.065 15.1538 55.8313 14.0525 53.3988 13.2062C58.67 9.98125 65.1175 7.24 71.955 6.0725ZM8.045 6.0725C14.8837 7.24 21.3325 9.98125 26.6038 13.2062C24.17 14.0537 21.9375 15.155 19.9188 16.5163C18.5112 15.0763 14.7525 11.55 9.88625 9.52625C8.48125 14.6187 8.79875 18.9012 9.22125 21.3675L7.1175 25L7.645 25.0788C7.315 25.8825 7.165 26.7413 7.13 27.6038C6.74125 21.5238 7.035 14.2925 8.045 6.0725ZM40 74.57C26.2938 74.57 5.385 65.1975 5.385 52.6L7.695 53.0975C7.695 53.0975 5.0225 50.2113 5.7425 43.9663L7.9875 46.4275C7.9875 46.4275 5.7425 40.09 7.695 34.2425L10.1813 36.1025C10.1813 36.1025 9.42625 33.7225 10.12 32.0938L11.1938 32.9487C11.1938 32.9487 10.755 31.975 10.4125 30.6875C12.6337 30.915 14.6388 31.2513 16.5725 31.7688C16.6113 31.7788 16.6475 31.7938 16.685 31.8038C16.6175 31.8563 16.545 31.8938 16.48 31.9513C14.8538 33.42 13.6038 35.2537 12.99 37.4263C12.4412 39.5875 12.5838 41.8088 13.1025 43.8638C13.375 44.8962 13.7275 45.89 14.2013 46.8638L14.3962 47.2375L14.475 47.365L14.5963 47.5212C14.6713 47.6062 14.7238 47.66 14.785 47.7188C15.0238 47.9437 15.26 48.1163 15.5037 48.27C15.995 48.57 16.4987 48.805 17.0125 48.9875C19.075 49.73 21.235 49.7562 23.2775 49.4825C25.3002 49.1673 27.2718 48.5834 29.14 47.7462C27.1625 48.1787 25.1825 48.5588 23.2025 48.5662C21.2413 48.6175 19.2612 48.3713 17.5538 47.6263C17.1398 47.4469 16.746 47.2245 16.3787 46.9625C16.2141 46.845 16.0594 46.7141 15.9163 46.5713L15.8475 46.4925C15.85 46.495 15.8525 46.5 15.85 46.5C15.843 46.4884 15.8355 46.4772 15.8275 46.4663L15.6875 46.1637C15.3136 45.2887 15.0256 44.3795 14.8275 43.4487C14.41 41.5938 14.3225 39.6625 14.8012 37.9038C15.2425 36.175 16.3375 34.5225 17.6637 33.2638C18.0424 32.9019 18.5105 32.6473 19.02 32.5262C20.155 32.9175 21.27 33.3462 22.3512 33.8462C23.1388 34.215 23.9062 34.6125 24.6625 35.0325C22.0625 35.2325 20.0025 37.6425 20.0025 40.6187C20.0025 43.7237 22.2413 46.2437 25.0025 46.2437C27.7638 46.2437 30.0025 43.7237 30.0025 40.6187C30.0025 39.8225 29.8512 39.0662 29.585 38.3775C30.6462 39.2475 31.6632 40.1699 32.6325 41.1412C32.3788 38.785 31.2213 36.5737 29.6688 34.7475C28.1088 32.9225 26.1063 31.4475 23.9263 30.4463C21.7362 29.4244 19.354 28.8795 16.9375 28.8475C14.6388 28.8375 12.3062 29.3263 10.3675 30.5137C9.9125 28.7237 9.6775 26.3987 11.0175 25.18C11.9763 28.395 13.1087 28.4437 13.1737 28.4437H13.1775C13.1775 28.4437 11.745 25.9637 12.86 24.9237C13.3162 25.6712 13.7413 25.925 14.0837 25.925C14.5975 25.925 14.9275 25.3538 14.9 25.0163C14.8387 24.2712 15.125 23.2188 11.78 22.7238C12.2413 21.9275 13.2712 21.6912 14.3412 21.6912C15.935 21.6912 17.615 22.2213 17.615 22.2213C17.615 22.2213 17.5075 20.5437 15.2975 20.5437L15.1637 20.5462C15.8587 19.5037 16.8762 19.1987 17.8263 19.1987C19.1462 19.1987 20.3337 19.785 20.3337 19.785L20.3263 19.8075C21.2219 19.1304 22.1634 18.516 23.1437 17.9688C23.9187 19.7412 24.9662 20.5487 26.2475 22.9175C28.0787 19.5362 29.4187 17.5712 30.1712 15.2C31.3128 14.9104 32.4685 14.6796 33.6337 14.5088C34.6025 18.8713 36.8275 22.2475 40.0013 28.105C43.2225 22.16 45.4175 18.835 46.3713 14.5062C47.5825 14.6825 48.73 14.9212 49.835 15.2C50.5938 17.5975 51.945 19.58 53.7537 22.9175C55.0475 20.525 56.095 19.7237 56.8638 17.9688C57.8525 18.5325 58.805 19.1337 59.6812 19.8075L59.6737 19.785C59.6737 19.785 60.86 19.1987 62.1812 19.1987C63.1312 19.1987 64.1488 19.5037 64.8425 20.5462L64.7087 20.5437C62.4987 20.5437 62.3912 22.2213 62.3912 22.2213C62.3912 22.2213 64.0713 21.6888 65.665 21.6912C66.7337 21.6912 67.765 21.9275 68.2262 22.7238C64.8813 23.2188 65.1675 24.2712 65.1062 25.0163C65.08 25.3538 65.4087 25.925 65.9212 25.925C66.265 25.925 66.69 25.6712 67.1462 24.9237C68.2625 25.9637 66.8288 28.4437 66.8288 28.4437H66.8313C66.8975 28.4437 68.03 28.395 68.9875 25.18C70.3275 26.3987 70.0938 28.7237 69.6375 30.5137C67.6987 29.3263 65.365 28.8375 63.065 28.8475C60.665 28.87 58.265 29.4338 56.0775 30.4463C53.8975 31.4475 51.8925 32.9213 50.3325 34.7475C48.78 36.5713 47.625 38.785 47.3713 41.1412C48.3431 40.1671 49.3632 39.2422 50.4275 38.37C50.1481 39.0868 50.0048 39.8494 50.005 40.6187C50.005 43.7237 52.2413 46.2437 55.005 46.2437C57.7663 46.2437 60.005 43.7237 60.005 40.6187C60.005 37.6425 57.9425 35.23 55.3425 35.0325C56.0978 34.6099 56.8683 34.2151 57.6525 33.8488C58.7392 33.3514 59.8507 32.91 60.9825 32.5262C61.4662 32.65 61.925 32.865 62.34 33.2638C63.6663 34.5225 64.7625 36.1763 65.2037 37.9038C65.6825 39.6637 65.595 41.5925 65.1775 43.4487C64.9775 44.3762 64.6862 45.3063 64.3162 46.1637L64.175 46.4688C64.2163 46.4 64.1575 46.495 64.155 46.5025C64.1525 46.5 64.155 46.495 64.1575 46.4925L64.0887 46.5713C63.9451 46.7141 63.79 46.845 63.625 46.9625C63.258 47.2242 62.8646 47.4467 62.4512 47.6263C60.7425 48.3713 58.765 48.6175 56.8013 48.5662C54.8213 48.5588 52.8413 48.1775 50.8638 47.7462C52.7315 48.5832 54.7027 49.1671 56.725 49.4825C58.7688 49.7562 60.9288 49.7287 62.9925 48.9875C63.5182 48.8015 64.023 48.561 64.4987 48.27C64.745 48.1163 64.98 47.9425 65.2188 47.7188C65.2825 47.66 65.3337 47.6062 65.4087 47.5212L65.5288 47.365L65.6087 47.2375L65.8012 46.8638C66.2775 45.89 66.6287 44.8962 66.9025 43.8662C67.42 41.8087 67.5612 39.5863 67.015 37.4287C66.4 35.2537 65.15 33.4188 63.5238 31.9513C63.4575 31.8938 63.3875 31.855 63.3187 31.8025C63.355 31.7925 63.3925 31.7775 63.4287 31.7688C65.365 31.2513 67.3688 30.9137 69.5912 30.6875C69.25 31.9737 68.81 32.9487 68.81 32.9487L69.8838 32.0938C70.58 33.7212 69.8225 36.1025 69.8225 36.1025L72.3075 34.2425C74.2613 40.09 72.015 46.4275 72.015 46.4275L74.2613 43.9663C74.9812 50.2113 72.3075 53.0975 72.3075 53.0975L74.62 52.6C74.6162 65.1975 53.7088 74.57 40 74.57Z" fill="#2E2E2E"/>
<path d="M39.9998 54.6875C40.9298 54.6875 42.0873 54.3288 43.2986 53.1913C45.2173 51.39 45.7761 49.3025 45.0536 48.46C44.0398 47.2775 40.9298 47.1875 39.9998 47.1875C39.0723 47.1875 35.9598 47.2775 34.9461 48.46C34.2261 49.3025 34.7823 51.39 36.7036 53.1913C37.9148 54.3288 39.0711 54.6875 39.9998 54.6875ZM54.1473 58.555C50.1923 61.4925 40.0848 63.7088 33.4073 62.1225C31.6173 61.6975 30.3461 66.3388 32.2548 66.8225C39.5086 68.575 51.0736 66.8787 57.0623 62.425C58.5423 61.2987 55.6198 57.4238 54.1473 58.555Z" fill="#2E2E2E"/>
</svg>
