<svg width="80" height="80" viewBox="0 0 80 80" fill="none" xmlns="http://www.w3.org/2000/svg">
<path d="M75.2537 19.62C71.0987 23.135 67.0088 22.3137 64.7625 21.3937C67.4725 19.6175 69.8925 17.9737 71.0863 16.505C74.88 11.835 76.2163 2.53749 73.6162 2.53749C71.5062 2.53749 74.5713 10.7962 65.8937 16.8787C67.6762 10.4762 64.565 3.11874 62.38 2.53749C61.8725 2.40374 60.1312 2.53749 61.4425 4.45124C65.735 10.715 63.7987 16.4225 62.3462 19.1737C60.1387 20.6125 58.0788 22.0487 56.2062 23.51C57.4763 19.6068 57.7276 15.4438 56.9362 11.4162C55.645 4.85749 59.8125 6.535 58.755 3.71999C58.0688 1.89499 53.4762 4.18749 54.1875 8.90874C54.6387 11.9062 55.52 14.4762 54.995 18.5012C53.7087 17.9787 50.75 16.5062 48.6912 13.3612C45.7862 8.92875 41.7113 14.9237 54.4062 21.4412C54.14 22.4625 53.7787 23.5787 53.3262 24.7925C49.7062 26.7762 47.3813 29.705 45.8988 32.5887C43.785 32.2162 41.78 32.1775 40 32.1775C38.2212 32.1775 36.2175 32.2162 34.1038 32.5887C32.6188 29.7037 30.295 26.7762 26.675 24.7925C26.2581 23.6946 25.8976 22.576 25.595 21.4412C38.2887 14.9237 34.215 8.92875 31.31 13.3612C29.2513 16.5075 26.2913 17.9787 25.005 18.5012C24.48 14.4762 25.3612 11.9075 25.8125 8.90874C26.5225 4.18749 21.9325 1.89499 21.245 3.71999C20.1875 6.535 24.355 4.85749 23.0625 11.4162C22.2723 15.4441 22.5245 19.607 23.795 23.51C21.9225 22.0487 19.8612 20.6137 17.6575 19.1737C16.2025 16.4225 14.2675 10.7137 18.5575 4.45124C19.87 2.53749 18.1275 2.40249 17.6213 2.53749C15.4362 3.11874 12.3263 10.4762 14.1075 16.8787C5.43125 10.7975 8.4925 2.53749 6.385 2.53749C3.78375 2.53749 5.11875 11.835 8.9125 16.505C10.1088 17.9737 12.53 19.6175 15.24 21.3937C12.9913 22.3137 8.9025 23.135 4.74625 19.62C4.24875 19.1962 2.5 18.34 2.5 20.4887C2.5 22.2387 7.3775 26.3762 13.6462 25.11C13.73 27.3025 14.685 39.3612 25.3475 43.9625C25.2337 44.705 24.9675 45.5637 24.4 46.5387C21.1863 52.0562 22.6613 58.0275 28.4488 62.9225C29.3563 63.6887 29.5487 65.0762 29.76 67.27C30.0363 70.1112 30.4112 74.0037 34.4762 76.0512C36.4287 77.0262 38.2325 77.5 40 77.5C41.7675 77.5 43.5737 77.0262 45.5188 76.0525C49.5913 74.0012 49.9663 70.1112 50.2388 67.2687C50.45 65.0762 50.6425 63.6887 51.5487 62.9237C57.3387 58.0287 58.8138 52.0575 55.5975 46.5387C55.03 45.565 54.765 44.7062 54.6513 43.9637C65.3125 39.3625 66.2675 27.3025 66.3512 25.1112C72.62 26.3775 77.5 22.2387 77.5 20.4887C77.5 18.34 75.7525 19.1962 75.2537 19.62ZM52.0975 42.3287C52.01 43.8337 52.1975 45.6287 53.4212 47.7262C56.5825 53.1512 53.695 57.8962 49.905 61.1C46.1188 64.3 49.615 71.2625 44.37 73.9025C43.1662 74.505 41.6675 75.0787 40 75.0787C38.3325 75.0787 36.835 74.505 35.6312 73.9025C30.3875 71.2625 33.8825 64.2987 30.095 61.1C26.3088 57.8962 23.4175 53.1512 26.5788 47.7262C27.8025 45.6275 27.9912 43.8325 27.9037 42.3275C16.2225 38.57 16.1375 24.765 16.1375 24.765C26.1425 24.765 30.6362 30.365 32.66 35.4062C33.1313 35.27 33.5975 35.1762 34.065 35.0812C32.7113 36.93 32.3375 39.2575 34.5863 43.6512C37.8162 49.96 36.67 61.395 40.0013 61.395C43.3337 61.395 42.1888 49.96 45.4163 43.6512C47.665 39.2562 47.2925 36.93 45.9388 35.0812C46.405 35.1762 46.8725 35.2687 47.345 35.4062C49.3687 30.3675 53.8612 24.765 63.8638 24.765C63.8625 24.7662 63.7775 38.5712 52.0975 42.3287Z" fill="#2E2E2E"/>
<path d="M28.3527 39.1287C27.4077 38.165 25.3252 36.2375 28.3464 37.3713C31.3702 38.505 28.3527 36.3325 27.7864 35.3688C27.2177 34.405 31.2902 36.5263 31.2902 36.5263C26.1952 27.3688 19.2627 27.3688 19.2627 27.3688C19.2614 37.4888 29.2989 40.0913 28.3527 39.1287ZM52.2139 35.3688C51.6477 36.3325 48.6302 38.505 51.6552 37.3713C54.6777 36.2375 52.5952 38.165 51.6477 39.1287C50.7002 40.0925 60.7364 37.4888 60.7364 27.3688C60.7364 27.3688 53.8052 27.3688 48.7102 36.5263C48.7114 36.5263 52.7864 34.405 52.2139 35.3688ZM45.6839 66.975C45.6839 65.6263 42.4639 65.2388 40.0002 65.2388C37.5377 65.2388 34.3189 65.6263 34.3189 66.975C34.3189 68.2463 36.3339 70.965 39.4139 71.28V72.4738C37.1802 72.3463 35.4602 71.4125 35.3239 71.75C35.1464 72.0588 37.1414 73.9625 40.0002 73.9463C42.8589 73.9625 44.8564 72.0588 44.6777 71.75C44.5414 71.4138 42.8202 72.3475 40.5864 72.4738V71.28C43.6689 70.965 45.6839 68.2463 45.6839 66.975ZM28.9277 48.3675C27.7689 48.565 27.0664 50.0213 27.3577 51.6225C27.6489 53.2213 28.8239 54.3575 29.9839 54.16C31.1414 53.9625 31.8439 52.5063 31.5514 50.905C31.2589 49.3062 30.0852 48.17 28.9277 48.3675ZM51.0739 48.3675C49.9164 48.17 48.7402 49.3062 48.4489 50.9062C48.1564 52.5062 48.8589 53.9625 50.0189 54.1612C51.1764 54.3587 52.3502 53.2225 52.6439 51.6238C52.9377 50.0225 52.2339 48.5663 51.0739 48.3675Z" fill="#2E2E2E"/>
<path d="M29.5548 44.8962C29.3948 45.11 31.8448 46.7087 32.7361 49.69C33.7198 52.6462 32.6123 55.2975 32.8686 55.39C33.0811 55.5825 34.7773 52.795 33.6848 49.41C32.6348 46.0137 29.6186 44.62 29.5548 44.8962ZM50.4461 44.8962C50.3823 44.62 47.3648 46.0137 46.3123 49.4087C45.2211 52.7937 46.9198 55.5812 47.1298 55.3887C47.3861 55.2975 46.2798 52.6462 47.2636 49.6887C48.1561 46.7087 50.6048 45.11 50.4461 44.8962Z" fill="#2E2E2E"/>
</svg>
