<svg width="80" height="80" viewBox="0 0 80 80" fill="none" xmlns="http://www.w3.org/2000/svg">
<g clip-path="url(#clip0_1_800)">
<path d="M16.6668 66.6667C16.6668 68.5067 15.1734 70 13.3334 70C11.4934 70 10.0001 68.5067 10.0001 66.6667C10.0001 64.8267 11.4934 63.3333 13.3334 63.3333C15.1734 63.3333 16.6668 64.8267 16.6668 66.6667ZM80.0001 24.5233C80.0001 27.85 78.0001 30 74.9134 30H52.3567L59.5101 37.1533L57.1534 39.51L50.0001 32.3567L44.0234 38.3333L53.6768 47.9867L51.3201 50.3433L41.6667 40.69L35.2201 47.1367L47.3768 59.29L45.0201 61.6467L32.8634 49.4933L27.6967 54.66C32.3967 59.76 35.8068 66.06 37.3934 73.0267L37.7034 74.3867L36.4234 74.93C28.2934 78.3867 17.2501 80 1.67008 80H0.00341797V78.3333C0.00341797 62.75 1.61342 51.71 5.07342 43.58L5.62008 42.2967L6.97675 42.6067C13.9468 44.1933 20.2468 47.6033 25.3434 52.3033L30.5101 47.1367L18.3534 34.98L20.7101 32.6233L32.8667 44.78L39.3134 38.3333L29.6601 28.68L32.0167 26.3233L41.6701 35.9767L47.6467 30L40.4934 22.8467L42.8501 20.49L50.0034 27.6433V5.08667C50.0034 1.99667 52.1534 0 55.4801 0C60.4367 0 67.6334 3.67 68.4901 11.5133C76.3368 12.3733 80.0001 19.5667 80.0001 24.5233ZM33.8034 72.3933C30.3901 59.6867 20.3134 49.61 7.60675 46.1967C4.81342 53.4833 3.44675 63.2467 3.34342 76.66C16.7534 76.5567 26.5201 75.1933 33.8068 72.3967L33.8034 72.3933ZM76.6667 24.5233C76.6667 21.4633 74.2101 14.76 66.9034 14.76H65.2367V13.0933C65.2367 5.79 58.5334 3.33 55.4734 3.33C53.3301 3.33 53.3301 4.51333 53.3301 5.08333V26.6633H74.9101C75.4801 26.6633 76.6634 26.6633 76.6634 24.52L76.6667 24.5233Z" fill="#2E2E2E"/>
</g>
<defs>
<clipPath id="clip0_1_800">
<rect width="80" height="80" fill="white"/>
</clipPath>
</defs>
</svg>
