<svg width="80" height="80" viewBox="0 0 80 80" fill="none" xmlns="http://www.w3.org/2000/svg">
<path fill-rule="evenodd" clip-rule="evenodd" d="M29.0625 19.1625C23.0115 21.3304 17.7193 25.2071 13.8275 30.3225L13.865 30.365L12.825 31.945C9.34099 37.238 7.48928 43.4382 7.5 49.775C7.5 58.6125 11 63.9425 16.53 67.2225C22.28 70.635 30.48 71.9725 40 71.9725C49.52 71.9725 57.72 70.635 63.47 67.2225C69 63.9425 72.5 58.6125 72.5 49.7725C72.5115 43.4356 70.6616 37.2348 67.18 31.94L66.3725 30.715C62.5053 25.4014 57.1225 21.3806 50.93 19.18C50.9334 19.1734 50.9368 19.1667 50.94 19.16C47.4286 17.9081 43.7278 17.2705 40 17.275C36.1575 17.275 32.475 17.94 29.0625 19.1625ZM5.575 23.425C5.57492 20.7568 6.36993 18.1491 7.85855 15.9347C9.34717 13.7203 11.4619 11.9998 13.9327 10.9926C16.4036 9.98552 19.1185 9.73752 21.7309 10.2803C24.3434 10.8231 26.7348 12.132 28.6 14.04C32.2861 12.8666 36.1317 12.2712 40 12.275C43.8683 12.2718 47.7138 12.8672 51.4 14.04C53.7247 11.6606 56.85 10.2291 60.1701 10.0228C63.4903 9.81657 66.7687 10.8503 69.3701 12.9237C71.9714 14.997 73.7103 17.9623 74.2498 21.2448C74.7893 24.5273 74.0909 27.8931 72.29 30.69C75.7105 36.4677 77.5103 43.0607 77.5 49.775C77.5 60.2625 73.165 67.2825 66.025 71.5225C59.105 75.6275 49.805 76.9725 40 76.9725C30.195 76.9725 20.895 75.6275 13.975 71.5225C6.8375 67.2825 2.5 60.2625 2.5 49.7725C2.5 42.8125 4.4 36.2875 7.7125 30.6975C6.31347 28.5302 5.57114 26.0046 5.575 23.425ZM30.45 54.045C31.0175 54.045 31.48 54.5075 31.48 55.075C31.48 56.9825 33.0175 58.52 34.925 58.52C36.8325 58.52 38.37 56.9825 38.37 55.075C38.3701 54.8547 38.4409 54.6402 38.5719 54.4631C38.7029 54.2859 38.8873 54.1555 39.0979 54.0908C39.3086 54.0262 39.5344 54.0309 39.7422 54.104C39.95 54.1772 40.1288 54.3151 40.2525 54.4975C40.4301 54.6882 40.5285 54.9394 40.5275 55.2C40.5275 56.1273 40.8959 57.0166 41.5515 57.6722C42.2072 58.3279 43.0965 58.6963 44.0237 58.6963C44.951 58.6963 45.8403 58.3279 46.496 57.6722C47.1516 57.0166 47.52 56.1273 47.52 55.2C47.533 54.9359 47.6471 54.687 47.8386 54.5047C48.0301 54.3224 48.2844 54.2207 48.5487 54.2207C48.8131 54.2207 49.0674 54.3224 49.2589 54.5047C49.4504 54.687 49.5645 54.9359 49.5775 55.2C49.5783 56.3924 49.1953 57.5534 48.485 58.5112C47.7747 59.469 46.775 60.1727 45.6337 60.5182C44.4924 60.8637 43.2702 60.8326 42.148 60.4295C41.0258 60.0264 40.0631 59.2727 39.4025 58.28C38.8931 58.9921 38.2211 59.5723 37.4423 59.9723C36.6635 60.3723 35.8005 60.5807 34.925 60.58C34.2019 60.5807 33.4857 60.4387 32.8175 60.1623C32.1494 59.8859 31.5422 59.4804 31.0309 58.9691C30.5196 58.4578 30.1141 57.8506 29.8377 57.1825C29.5613 56.5143 29.4193 55.7981 29.42 55.075C29.42 54.5075 29.8825 54.045 30.45 54.045ZM37.175 46.5H41.7C43.65 46.5 44.625 48.85 43.25 50.225L41 52.475C40.5921 52.8826 40.0391 53.1116 39.4625 53.1116C38.8859 53.1116 38.3329 52.8826 37.925 52.475L35.675 50.225C35.3601 49.9273 35.1423 49.5416 35.0497 49.1182C34.9571 48.6949 34.9942 48.2535 35.1561 47.8515C35.3179 47.4496 35.5971 47.1056 35.9572 46.8646C36.3173 46.6235 36.7417 46.4965 37.175 46.5ZM31.65 48.25C29.882 50.0151 27.4858 51.0065 24.9875 51.0065C22.4892 51.0065 20.093 50.0151 18.325 48.25C14.65 44.575 16.3 40.25 19.975 36.575C23.65 32.9 27.975 31.25 31.65 34.925C33.4151 36.693 34.4065 39.0892 34.4065 41.5875C34.4065 44.0858 33.4151 46.482 31.65 48.25ZM28.575 46.075C28.0699 46.0638 27.5897 45.8538 27.2386 45.4906C26.8875 45.1273 26.6939 44.6402 26.7 44.135V40.515C26.7 39.47 27.53 38.575 28.575 38.575C29.62 38.575 30.45 39.4325 30.45 40.515V44.135C30.456 44.3859 30.412 44.6356 30.3207 44.8694C30.2294 45.1032 30.0926 45.3166 29.9181 45.497C29.7437 45.6775 29.5351 45.8216 29.3046 45.9208C29.074 46.02 28.826 46.0724 28.575 46.075ZM60.565 48.25C58.797 50.0151 56.4008 51.0065 53.9025 51.0065C51.4042 51.0065 49.008 50.0151 47.24 48.25C45.4749 46.482 44.4835 44.0858 44.4835 41.5875C44.4835 39.0892 45.4749 36.693 47.24 34.925C50.915 31.25 55.24 32.9 58.915 36.575C62.59 40.25 64.24 44.575 60.565 48.25ZM52.19 44.135C52.196 44.6402 52.0025 45.1273 51.6514 45.4906C51.3003 45.8538 50.8201 46.0638 50.315 46.075C50.064 46.0724 49.816 46.02 49.5854 45.9208C49.3549 45.8216 49.1463 45.6775 48.9719 45.497C48.7974 45.3166 48.6606 45.1032 48.5693 44.8694C48.478 44.6356 48.434 44.3859 48.44 44.135V40.515C48.44 39.4325 49.2675 38.575 50.315 38.575C51.36 38.575 52.19 39.47 52.19 40.515V44.135Z" fill="#2E2E2E"/>
</svg>
