<svg width="80" height="80" viewBox="0 0 80 80" fill="none" xmlns="http://www.w3.org/2000/svg">
<path d="M19.8802 72H57.0002C60.7882 72 63.8602 68.928 63.8602 65.136V34.696C70.3002 34.44 74.1522 27.296 70.7122 21.744L68.7042 18.504C67.9441 17.2763 66.883 16.263 65.6216 15.5602C64.3602 14.8574 62.9402 14.4883 61.4962 14.488H55.7562V11.944C55.7562 11.4261 55.6542 10.9132 55.456 10.4347C55.2578 9.95619 54.9673 9.5214 54.601 9.15517C54.2348 8.78894 53.8 8.49842 53.3215 8.30022C52.843 8.10201 52.3301 8 51.8122 8C50.5279 8.00053 49.2562 8.25401 48.0699 8.74599C46.8835 9.23797 45.8056 9.9588 44.8979 10.8673C43.9901 11.7759 43.2701 12.8543 42.7791 14.0411C42.2881 15.2278 42.0357 16.4997 42.0362 17.784V31.608C36.9242 32.112 33.0642 34.528 30.2282 37.936C27.1002 41.696 25.2562 46.596 24.1602 51.304C23.0562 56.032 22.6682 60.736 22.5482 64.232C22.5002 65.728 22.5002 67.016 22.5162 68H19.8802C18.3434 68.0001 16.8401 67.5511 15.5552 66.7082C14.2702 65.8653 13.2596 64.6652 12.6476 63.2556C12.0357 61.8459 11.849 60.2881 12.1106 58.7738C12.3722 57.2595 13.0707 55.8546 14.1202 54.732L17.8002 50.784C20.3365 48.0637 21.718 44.4652 21.6538 40.7465C21.5897 37.0278 20.0848 33.4792 17.4562 30.848L13.8442 27.236C13.6597 27.045 13.439 26.8926 13.195 26.7878C12.951 26.683 12.6886 26.6278 12.423 26.6255C12.1574 26.6232 11.8941 26.6738 11.6483 26.7744C11.4025 26.8749 11.1792 27.0234 10.9914 27.2112C10.8036 27.399 10.6551 27.6223 10.5546 27.8681C10.454 28.1139 10.4034 28.3772 10.4057 28.6428C10.408 28.9084 10.4632 29.1708 10.568 29.4148C10.6728 29.6588 10.8252 29.8795 11.0162 30.064L14.6282 33.676C16.5258 35.573 17.6124 38.133 17.6587 40.8159C17.705 43.4987 16.7073 46.0947 14.8762 48.056L11.1962 52.004C9.61907 53.6977 8.57042 55.8148 8.17881 58.0958C7.78721 60.3767 8.06967 62.7223 8.99156 64.8451C9.91345 66.9679 11.4347 68.7755 13.3688 70.0464C15.303 71.3173 17.5659 71.9963 19.8802 72ZM51.7602 12V16.488C51.7602 17.0184 51.9709 17.5271 52.346 17.9022C52.7211 18.2773 53.2298 18.488 53.7602 18.488H61.4962C63.0482 18.488 64.4882 19.288 65.3042 20.608L67.3162 23.852C67.7373 24.5315 67.9692 25.3112 67.988 26.1104C68.0068 26.9096 67.8118 27.6993 67.4232 28.3979C67.0345 29.0965 66.4664 29.6786 65.7774 30.084C65.0884 30.4894 64.3036 30.7035 63.5042 30.704H61.8642C61.3338 30.704 60.8251 30.9147 60.45 31.2898C60.0749 31.6649 59.8642 32.1736 59.8642 32.704V65.136C59.8642 66.716 58.5842 68 57.0002 68H54.1362V65.136C54.1373 62.0262 52.9032 59.0434 50.7054 56.8433C48.5076 54.6432 45.526 53.4061 42.4162 53.404H38.3602C37.8298 53.404 37.3211 53.6147 36.946 53.9898C36.5709 54.3649 36.3602 54.8736 36.3602 55.404C36.3602 55.9344 36.5709 56.4431 36.946 56.8182C37.3211 57.1933 37.8298 57.404 38.3602 57.404H42.4122C46.6802 57.404 50.1402 60.864 50.1402 65.136V68H26.5162C26.4962 67.064 26.4962 65.824 26.5442 64.364C26.6562 61.02 27.0242 56.604 28.0522 52.212C29.0802 47.796 30.7322 43.576 33.3002 40.492C35.8082 37.488 39.2122 35.512 44.0362 35.512C44.5666 35.512 45.0753 35.3013 45.4504 34.9262C45.8255 34.5511 46.0362 34.0424 46.0362 33.512V17.784C46.0362 14.608 48.5962 12.028 51.7602 12Z" fill="#2E2E2E"/>
</svg>
