<svg width="80" height="80" viewBox="0 0 80 80" fill="none" xmlns="http://www.w3.org/2000/svg">
<path d="M19.9998 13.3333C14.9132 20.8617 10.0215 23.0167 6.6665 21.6667C7.5715 24.7217 14.0715 28.9583 18.2115 31.3967C19.9948 32.4467 20.5165 34.8383 19.2748 36.495C17.0032 39.5283 13.8582 43.815 13.3332 45C1.58984 66.3167 27.4698 74.4133 39.9998 73.3333C76.9065 70.1533 75.5915 41.3383 69.9998 30C56.5798 53.3233 35.8648 39.8583 36.6665 35C37.4682 30.1417 42.9865 31.1083 44.9998 23.3333C48.3548 7.94666 27.2898 0.664996 19.9998 13.3333Z" stroke="#2E2E2E" stroke-width="4" stroke-linecap="round" stroke-linejoin="round"/>
<path d="M31.6665 51.6667C35.8332 57.5 48.3332 63.3333 58.3332 55" stroke="#2E2E2E" stroke-width="4" stroke-linecap="round" stroke-linejoin="round"/>
<path d="M28.3333 23.3333C30.1743 23.3333 31.6667 21.8409 31.6667 20C31.6667 18.159 30.1743 16.6667 28.3333 16.6667C26.4924 16.6667 25 18.159 25 20C25 21.8409 26.4924 23.3333 28.3333 23.3333Z" fill="#2E2E2E"/>
</svg>
