<svg width="40" height="40" viewBox="0 0 40 40" fill="none" xmlns="http://www.w3.org/2000/svg">
<path d="M5.83333 34.1667C7.21667 35.55 9.45 35.55 10.8333 34.1667L32.5 12.5C33.8833 11.1167 33.8833 8.88336 32.5 7.50002C31.1167 6.11669 28.8833 6.11669 27.5 7.50002L5.83333 29.1667C4.45 30.55 4.45 32.7834 5.83333 34.1667Z" stroke="#2E2E2E" stroke-width="1.5" stroke-linecap="round" stroke-linejoin="round"/>
<path d="M30.0167 14.9833L25.0167 9.98334" stroke="#2E2E2E" stroke-width="1.5" stroke-linecap="round" stroke-linejoin="round"/>
<path d="M14.1667 4.06665L16.6667 3.33331L15.9333 5.83331L16.6667 8.33331L14.1667 7.59998L11.6667 8.33331L12.4 5.83331L11.6667 3.33331L14.1667 4.06665Z" stroke="#2E2E2E" stroke-linecap="round" stroke-linejoin="round"/>
<path d="M7.5 14.0666L10 13.3333L9.26667 15.8333L10 18.3333L7.5 17.6L5 18.3333L5.73333 15.8333L5 13.3333L7.5 14.0666Z" stroke="#2E2E2E" stroke-linecap="round" stroke-linejoin="round"/>
<path d="M32.5 22.4L35 21.6667L34.2667 24.1667L35 26.6667L32.5 25.9334L30 26.6667L30.7333 24.1667L30 21.6667L32.5 22.4Z" stroke="#2E2E2E" stroke-linecap="round" stroke-linejoin="round"/>
</svg>
