<svg width="80" height="80" viewBox="0 0 80 80" fill="none" xmlns="http://www.w3.org/2000/svg">
<g clip-path="url(#clip0_1_817)">
<path d="M72.9 13.88C72.29 13.2033 71.2467 13.1533 70.56 13.76C69.8767 14.37 69.8167 15.4233 70.4233 16.11C70.4667 16.16 73.6533 19.9333 75.4533 29.3933C74.9833 36.4167 69.9367 43.3333 61.6667 43.3333H48.4733C47.2333 39.6333 45.27 36.8233 42.7067 35.1533C47.0167 32.94 50 28.5 50 23.3333V21.11C50 16.9067 48.7533 12.9967 46.6267 9.70334C48.5833 9.02667 50 7.18667 50 4.99667C50 2.23667 47.76 -0.00332642 45 -0.00332642C42.8133 -0.00332642 40.97 1.41334 40.2933 3.37001C37 1.24667 33.09 -0.00332642 28.89 -0.00332642H21.11C16.9067 -0.00332642 13 1.24334 9.70667 3.37001C9.03 1.41334 7.19 -0.00332642 5 -0.00332642C2.24 6.91763e-06 0 2.24001 0 5.00001C0 7.19001 1.41333 9.03001 3.37333 9.70667C1.25 13 0 16.91 0 21.1133V23.3367C0 26.6867 1.28333 29.7167 3.33333 32.0633V51.67C3.33333 67.2933 16.0433 80.0033 31.6667 80.0033H51.6867C53.9267 80.0033 56.0333 79.13 57.6133 77.54C59.17 75.9767 60.0233 73.91 60.0167 71.72C60.0067 68.6067 60.9933 66.6267 61.9467 64.71C62.41 63.7833 62.8467 62.9067 63.1467 61.9467C63.6733 60.2633 63.0733 58.4967 61.6067 57.4467C60.15 56.4033 58.3033 56.4033 56.8933 57.43L56.3233 57.8333C54.5167 59.11 51.7833 61.0367 50.4367 65.1533C50.2 65.8833 49.6333 66.6633 48.7633 66.6633H41.6633C40.7433 66.6633 39.9967 67.41 39.9967 68.33C39.9967 69.25 40.7433 69.9967 41.6633 69.9967H48.7633C50.9467 69.9967 52.85 68.5033 53.6067 66.19C54.6067 63.1233 56.54 61.76 58.2467 60.5567L58.8567 60.1233C59.19 59.88 59.5033 60.04 59.6633 60.1533C59.8 60.25 60.1 60.52 59.9667 60.9433C59.73 61.6967 59.3533 62.43 58.96 63.22C57.94 65.2733 56.6667 67.8233 56.68 71.7267C56.68 73.0233 56.1767 74.25 55.2467 75.1833C54.2967 76.14 53.03 76.6633 51.6833 76.6633H31.6633C18.5967 76.6633 7.85667 66.5833 6.77 53.79C10.6933 59.7533 17.7333 63.33 26.6633 63.33C27.5833 63.33 28.33 62.5833 28.33 61.6633C28.33 60.7433 27.5833 59.9967 26.6633 59.9967C14.5133 59.9967 6.66333 52.8 6.66333 41.6633V34.81C8.63333 35.9567 10.89 36.6633 13.33 36.6633C18.3433 36.6633 22.72 33.8833 24.9967 29.78C27.2733 33.88 31.65 36.6633 36.6633 36.6633C44.0433 36.6633 46.6633 45.64 46.6633 53.33C46.6633 54.25 47.41 54.9967 48.33 54.9967C49.25 54.9967 49.9967 54.25 49.9967 53.33C49.9967 50.91 49.7333 48.7133 49.3367 46.6633H61.6633C68.57 46.6633 73.6833 42.8267 76.4733 37.7033C76.5867 39.4633 76.6633 41.3167 76.6633 43.33V44.9967C76.6633 53.5733 73.29 61.6033 67.1667 67.61C66.51 68.2533 66.4967 69.31 67.14 69.9667C67.47 70.3 67.9 70.4667 68.33 70.4667C68.75 70.4667 69.1733 70.31 69.5 69.99C76.2667 63.35 79.9933 54.4767 79.9933 44.9967V43.33C79.9933 21.3633 73.0933 14.0967 72.8933 13.8767L72.9 13.88ZM27.2433 26.55C28.7967 26.2667 30 24.97 30 23.3333C30 21.4933 28.5067 20 26.6667 20H23.3333C21.4933 20 20 21.4933 20 23.3333C20 24.97 21.2 26.2667 22.7567 26.55C21.41 30.48 17.7167 33.3333 13.3333 33.3333C7.82 33.3333 3.33333 28.8467 3.33333 23.3333V21.11C3.33333 11.31 11.31 3.33334 21.11 3.33334H28.89C38.69 3.33334 46.6667 11.31 46.6667 21.11V23.3333C46.6667 28.8467 42.18 33.3333 36.6667 33.3333C32.2833 33.3333 28.5933 30.48 27.2433 26.55ZM16.6667 20C16.6667 21.84 15.1733 23.3333 13.3333 23.3333C11.4933 23.3333 10 21.84 10 20C10 18.16 11.4933 16.6667 13.3333 16.6667C15.1733 16.6667 16.6667 18.16 16.6667 20ZM36.6667 23.3333C34.8267 23.3333 33.3333 21.84 33.3333 20C33.3333 18.16 34.8267 16.6667 36.6667 16.6667C38.5067 16.6667 40 18.16 40 20C40 21.84 38.5067 23.3333 36.6667 23.3333Z" fill="#2E2E2E"/>
</g>
<defs>
<clipPath id="clip0_1_817">
<rect width="80" height="80" fill="white"/>
</clipPath>
</defs>
</svg>
