<svg width="32" height="32" viewBox="0 0 32 32" fill="none" xmlns="http://www.w3.org/2000/svg">
<g clip-path="url(#clip0_1_187)">
<path d="M1.33333 7.99998H30.6667C31.0203 7.99998 31.3594 7.8595 31.6095 7.60945C31.8595 7.35941 32 7.02027 32 6.66665C32 6.31302 31.8595 5.97389 31.6095 5.72384C31.3594 5.47379 31.0203 5.33331 30.6667 5.33331H1.33333C0.979711 5.33331 0.640573 5.47379 0.390524 5.72384C0.140476 5.97389 0 6.31302 0 6.66665C0 7.02027 0.140476 7.35941 0.390524 7.60945C0.640573 7.8595 0.979711 7.99998 1.33333 7.99998Z" fill="#2E2E2E"/>
<path d="M30.6666 12H12C11.6463 12 11.3072 12.1405 11.0572 12.3905C10.8071 12.6406 10.6666 12.9797 10.6666 13.3333C10.6666 13.687 10.8071 14.0261 11.0572 14.2761C11.3072 14.5262 11.6463 14.6667 12 14.6667H30.6666C31.0202 14.6667 31.3594 14.5262 31.6094 14.2761C31.8595 14.0261 32 13.687 32 13.3333C32 12.9797 31.8595 12.6406 31.6094 12.3905C31.3594 12.1405 31.0202 12 30.6666 12Z" fill="#2E2E2E"/>
<path d="M30.6666 25.3333H12C11.6463 25.3333 11.3072 25.4738 11.0572 25.7238C10.8071 25.9739 10.6666 26.313 10.6666 26.6666C10.6666 27.0203 10.8071 27.3594 11.0572 27.6095C11.3072 27.8595 11.6463 28 12 28H30.6666C31.0202 28 31.3594 27.8595 31.6094 27.6095C31.8595 27.3594 32 27.0203 32 26.6666C32 26.313 31.8595 25.9739 31.6094 25.7238C31.3594 25.4738 31.0202 25.3333 30.6666 25.3333Z" fill="#2E2E2E"/>
<path d="M30.6667 18.6667H1.33333C0.979711 18.6667 0.640573 18.8072 0.390524 19.0572C0.140476 19.3073 0 19.6464 0 20C0 20.3536 0.140476 20.6928 0.390524 20.9428C0.640573 21.1929 0.979711 21.3334 1.33333 21.3334H30.6667C31.0203 21.3334 31.3594 21.1929 31.6095 20.9428C31.8595 20.6928 32 20.3536 32 20C32 19.6464 31.8595 19.3073 31.6095 19.0572C31.3594 18.8072 31.0203 18.6667 30.6667 18.6667Z" fill="#2E2E2E"/>
</g>
<defs>
<clipPath id="clip0_1_187">
<rect width="32" height="32" fill="white"/>
</clipPath>
</defs>
</svg>
