<svg width="41" height="40" viewBox="0 0 41 40" fill="none" xmlns="http://www.w3.org/2000/svg">
<path d="M23.9 37.9166H15.9167C13.2167 37.9166 10.7667 36.8666 9 34.9333C7.23334 33.0166 6.38334 30.4833 6.61667 27.8C7.18334 20.9666 13.2167 15.4166 20.0833 15.4166C26.4 15.4166 32.3667 20.4833 33.4167 26.7C33.9167 29.6666 33.1833 32.4666 31.3833 34.6C29.55 36.7333 26.9 37.9166 23.9 37.9166ZM20.0667 17.9166C14.4833 17.9166 9.56667 22.45 9.1 28.0166C8.93334 30 9.55 31.85 10.8333 33.25C12.1167 34.65 13.9167 35.4166 15.9 35.4166H23.8833C26.1333 35.4166 28.1167 34.55 29.4333 33C30.75 31.45 31.2833 29.35 30.9167 27.1166C30.0833 22.05 25.2167 17.9166 20.0667 17.9166Z" fill="#2E2E2E"/>
<path d="M17.95 13.75C14.9667 13.75 12.5333 11.3166 12.5333 8.33329C12.5333 5.34996 14.9667 2.91663 17.95 2.91663C20.9333 2.91663 23.3667 5.34996 23.3667 8.33329C23.3667 11.3166 20.95 13.75 17.95 13.75ZM17.95 5.41663C16.35 5.41663 15.0333 6.73329 15.0333 8.33329C15.0333 9.93329 16.35 11.25 17.95 11.25C19.55 11.25 20.8667 9.93329 20.8667 8.33329C20.8667 6.73329 19.5667 5.41663 17.95 5.41663Z" fill="#2E2E2E"/>
<path d="M29.3333 15.75C26.8 15.75 24.75 13.7 24.75 11.1667C24.75 8.63337 26.8 6.58337 29.3333 6.58337C31.8667 6.58337 33.9167 8.63337 33.9167 11.1667C33.9167 13.7 31.8667 15.75 29.3333 15.75ZM29.3333 9.08337C28.1833 9.08337 27.25 10.0167 27.25 11.1667C27.25 12.3167 28.1833 13.25 29.3333 13.25C30.4833 13.25 31.4167 12.3167 31.4167 11.1667C31.4167 10.0167 30.4833 9.08337 29.3333 9.08337Z" fill="#2E2E2E"/>
<path d="M35.5 22.4166C33.4333 22.4166 31.75 20.7333 31.75 18.6666C31.75 16.6 33.4333 14.9166 35.5 14.9166C37.5667 14.9166 39.25 16.6 39.25 18.6666C39.25 20.7333 37.5667 22.4166 35.5 22.4166ZM35.5 17.4166C34.8167 17.4166 34.25 17.9833 34.25 18.6666C34.25 19.35 34.8167 19.9166 35.5 19.9166C36.1833 19.9166 36.75 19.35 36.75 18.6666C36.75 17.9833 36.1833 17.4166 35.5 17.4166Z" fill="#2E2E2E"/>
<path d="M7.11667 19.0833C4.58333 19.0833 2.53333 17.0333 2.53333 14.5C2.53333 11.9666 4.58333 9.91663 7.11667 9.91663C9.65 9.91663 11.7 11.9666 11.7 14.5C11.7 17.0333 9.65 19.0833 7.11667 19.0833ZM7.11667 12.4166C5.96667 12.4166 5.03333 13.35 5.03333 14.5C5.03333 15.65 5.96667 16.5833 7.11667 16.5833C8.26667 16.5833 9.2 15.65 9.2 14.5C9.2 13.35 8.26667 12.4166 7.11667 12.4166Z" fill="#2E2E2E"/>
</svg>
