<svg width="80" height="80" viewBox="0 0 80 80" fill="none" xmlns="http://www.w3.org/2000/svg">
<path d="M72.2188 16.1594C70.6532 14.1469 68.3251 13.125 65.3126 13.125C60.2094 13.125 53.6219 16.5812 47.6876 22.3719C45.4988 24.4788 43.5494 26.8212 41.8751 29.3562V17.5C41.8751 17.0027 41.6775 16.5258 41.3259 16.1742C40.9743 15.8225 40.4973 15.625 40.0001 15.625C39.5028 15.625 39.0259 15.8225 38.6742 16.1742C38.3226 16.5258 38.1251 17.0027 38.1251 17.5V29.3562C36.4565 26.8221 34.5135 24.4798 32.3313 22.3719C26.4032 16.5812 19.8126 13.125 14.7094 13.125C11.6813 13.125 9.35318 14.1469 7.78755 16.1594C6.05943 18.3812 5.37818 21.6875 5.7063 26.2656C5.99068 30.2437 6.9938 34.5562 7.83443 37.8687C9.79693 45.6 14.3251 48.1812 17.7657 49.0187C16.8472 50.4787 16.2254 52.1052 15.9355 53.8055C15.6457 55.5057 15.6936 57.2464 16.0765 58.9282C16.4594 60.61 17.1698 62.1998 18.1671 63.607C19.1645 65.0143 20.4292 66.2113 21.8891 67.1297C23.349 68.0481 24.9756 68.67 26.6758 68.9598C28.3761 69.2497 30.1168 69.2018 31.7986 68.8189C33.4803 68.436 35.0702 67.7256 36.4774 66.7282C37.8846 65.7309 39.0816 64.4662 40.0001 63.0062C41.8549 65.9551 44.8052 68.0464 48.202 68.82C51.5987 69.5936 55.1637 68.9861 58.1126 67.1312C61.0614 65.2764 63.1527 62.3261 63.9263 58.9293C64.6999 55.5326 64.0924 51.9676 62.2376 49.0187C65.6751 48.1969 70.2063 45.6 72.1688 37.8687C74.2344 29.7531 75.8501 20.8281 72.2188 16.1594ZM28.7501 65.625C26.3677 65.5909 24.087 64.6547 22.3678 63.0052C20.6487 61.3556 19.619 59.1155 19.4866 56.7366C19.3542 54.3577 20.1288 52.0172 21.6543 50.187C23.1797 48.3568 25.3425 47.1732 27.7063 46.875C27.9525 46.8481 28.1911 46.773 28.4083 46.6539C28.6255 46.5349 28.8171 46.3742 28.9722 46.1811C29.1273 45.988 29.2428 45.7662 29.3122 45.5284C29.3816 45.2906 29.4035 45.0415 29.3766 44.7953C29.3497 44.5491 29.2746 44.3106 29.1556 44.0934C29.0365 43.8762 28.8758 43.6845 28.6827 43.5294C28.4896 43.3743 28.2678 43.2588 28.03 43.1894C27.7923 43.12 27.5432 43.0981 27.2969 43.125C25.0002 43.3818 22.8129 44.2446 20.9594 45.625C18.1469 45.7219 13.4219 44.6375 11.4688 36.95C10.4532 32.9469 7.75318 22.3156 10.7469 18.4656C11.5782 17.3937 12.8751 16.875 14.7094 16.875C18.7344 16.875 24.6219 20.0875 29.7094 25.0562C34.9032 30.1219 38.1251 35.8094 38.1251 39.8969V56.25C38.1251 58.7364 37.1373 61.121 35.3792 62.8791C33.621 64.6373 31.2365 65.625 28.7501 65.625ZM68.5344 36.9469C66.5844 44.6344 61.8751 45.7156 59.0626 45.625C57.2097 44.2434 55.0222 43.3804 52.7251 43.125C52.4788 43.0971 52.2295 43.118 51.9913 43.1864C51.7532 43.2549 51.5308 43.3695 51.337 43.5239C51.1431 43.6783 50.9816 43.8693 50.8616 44.0861C50.7416 44.3029 50.6655 44.5413 50.6376 44.7875C50.6096 45.0337 50.6305 45.283 50.699 45.5212C50.7674 45.7594 50.8821 45.9817 51.0365 46.1756C51.1908 46.3694 51.3819 46.5309 51.5987 46.651C51.8155 46.771 52.0538 46.8471 52.3001 46.875C54.1062 47.0711 55.817 47.7859 57.2258 48.9331C58.6347 50.0803 59.6812 51.6109 60.2391 53.3399C60.7971 55.0689 60.8425 56.9225 60.3699 58.6767C59.8974 60.431 58.9271 62.011 57.5762 63.2258C56.2253 64.4407 54.5515 65.2384 52.7571 65.5228C50.9627 65.8072 49.1243 65.5659 47.464 64.8283C45.8037 64.0906 44.3924 62.8881 43.4007 61.3658C42.4089 59.8436 41.879 58.0668 41.8751 56.25V39.8969C41.8751 35.8094 45.1001 30.1219 50.2907 25.0562C55.3844 20.0875 61.2719 16.875 65.3126 16.875C67.1469 16.875 68.4375 17.3938 69.2751 18.4625C72.2532 22.3125 69.5532 32.9437 68.5376 36.9469H68.5344Z" fill="#2E2E2E"/>
</svg>
