<svg width="40" height="40" viewBox="0 0 40 40" fill="none" xmlns="http://www.w3.org/2000/svg">
<path d="M11.1859 9.60469C11.103 9.35574 10.9438 9.1392 10.731 8.98575C10.5181 8.8323 10.2624 8.74973 10 8.74973C9.7376 8.74973 9.48186 8.8323 9.26901 8.98575C9.05615 9.1392 8.89699 9.35574 8.81406 9.60469L2.56406 28.3547C2.50142 28.5426 2.48433 28.7427 2.51421 28.9385C2.54408 29.1343 2.62005 29.3202 2.73587 29.4809C2.8517 29.6416 3.00404 29.7725 3.18036 29.8627C3.35668 29.953 3.55193 30 3.75 30H16.25C16.4481 30 16.6433 29.953 16.8196 29.8627C16.996 29.7725 17.1483 29.6416 17.2641 29.4809C17.3799 29.3202 17.4559 29.1343 17.4858 28.9385C17.5157 28.7427 17.4986 28.5426 17.4359 28.3547L11.1859 9.60469ZM5.48438 27.5L10 13.9531L14.5156 27.5H5.48438ZM32.5 11.875C32.5 10.268 32.0235 8.69714 31.1307 7.361C30.2379 6.02485 28.969 4.98344 27.4843 4.36848C25.9997 3.75352 24.366 3.59262 22.7899 3.90612C21.2138 4.21963 19.7661 4.99346 18.6298 6.12976C17.4935 7.26606 16.7196 8.7138 16.4061 10.2899C16.0926 11.866 16.2535 13.4997 16.8685 14.9843C17.4834 16.469 18.5248 17.7379 19.861 18.6307C21.1971 19.5235 22.768 20 24.375 20C26.5291 19.9975 28.5943 19.1407 30.1175 17.6175C31.6407 16.0943 32.4975 14.0291 32.5 11.875ZM18.75 11.875C18.75 10.7625 19.0799 9.67495 19.698 8.74992C20.3161 7.82489 21.1946 7.10392 22.2224 6.67818C23.2502 6.25244 24.3812 6.14104 25.4724 6.35809C26.5635 6.57513 27.5658 7.11086 28.3525 7.89753C29.1391 8.6842 29.6749 9.68648 29.8919 10.7776C30.109 11.8688 29.9976 12.9998 29.5718 14.0276C29.1461 15.0554 28.4251 15.9339 27.5001 16.552C26.5751 17.1701 25.4875 17.5 24.375 17.5C22.8832 17.5 21.4524 16.9074 20.3975 15.8525C19.3426 14.7976 18.75 13.3668 18.75 11.875ZM35 22.5H21.25C20.9185 22.5 20.6005 22.6317 20.3661 22.8661C20.1317 23.1005 20 23.4185 20 23.75V32.5C20 32.8315 20.1317 33.1495 20.3661 33.3839C20.6005 33.6183 20.9185 33.75 21.25 33.75H35C35.3315 33.75 35.6495 33.6183 35.8839 33.3839C36.1183 33.1495 36.25 32.8315 36.25 32.5V23.75C36.25 23.4185 36.1183 23.1005 35.8839 22.8661C35.6495 22.6317 35.3315 22.5 35 22.5ZM33.75 31.25H22.5V25H33.75V31.25Z" fill="#2E2E2E"/>
</svg>
