<svg width="80" height="80" viewBox="0 0 80 80" fill="none" xmlns="http://www.w3.org/2000/svg">
<path d="M0 47.4074C0 33.0534 0 25.8764 2.26088 20.1854C5.51357 11.9979 11.9979 5.51357 20.1854 2.26088C25.8764 0 33.0534 0 47.4074 0H51.2C61.2809 0 66.3214 0 70.1718 1.96188C73.5587 3.6876 76.3124 6.44125 78.0381 9.82817C80 13.6786 80 18.7191 80 28.8V32.5926C80 46.9466 80 54.1236 77.7391 59.8146C74.4864 68.0021 68.0021 74.4864 59.8146 77.7391C54.1236 80 46.9466 80 32.5926 80C22.7242 80 17.79 80 13.8775 78.4456C8.24855 76.2094 3.79058 71.7514 1.55435 66.1225C0 62.21 0 57.2758 0 47.4074Z" fill="#D9D9D9"/>
</svg>
