<svg width="80" height="80" viewBox="0 0 80 80" fill="none" xmlns="http://www.w3.org/2000/svg">
<path d="M40 0L41.9469 2.85098L44.1811 0.219124L45.8194 3.25799L48.3165 0.874096L49.6281 4.06756L52.3607 1.95774L53.3313 5.27081L56.2695 3.45818L56.8884 6.85456L60 5.35898L60.2606 8.80145L63.5114 7.63932L63.4107 11.0902L66.7652 10.2742L66.3044 13.6956L69.7258 13.2348L68.9098 16.5893L72.3607 16.4886L71.1985 19.7394L74.641 20L73.1454 23.1116L76.5418 23.7305L74.7292 26.6687L78.0423 27.6393L75.9324 30.3719L79.1259 31.6835L76.742 34.1806L79.7809 35.8189L77.149 38.0531L80 40L77.149 41.9469L79.7809 44.1811L76.742 45.8194L79.1259 48.3165L75.9324 49.6281L78.0423 52.3607L74.7292 53.3313L76.5418 56.2695L73.1454 56.8884L74.641 60L71.1985 60.2606L72.3607 63.5114L68.9098 63.4107L69.7258 66.7652L66.3044 66.3044L66.7652 69.7258L63.4107 68.9098L63.5114 72.3607L60.2606 71.1985L60 74.641L56.8884 73.1454L56.2695 76.5418L53.3313 74.7292L52.3607 78.0423L49.6281 75.9324L48.3165 79.1259L45.8194 76.742L44.1811 79.7809L41.9469 77.149L40 80L38.0531 77.149L35.8189 79.7809L34.1806 76.742L31.6835 79.1259L30.3719 75.9324L27.6393 78.0423L26.6687 74.7292L23.7305 76.5418L23.1116 73.1454L20 74.641L19.7394 71.1985L16.4886 72.3607L16.5893 68.9098L13.2348 69.7258L13.6956 66.3044L10.2742 66.7652L11.0902 63.4107L7.63932 63.5114L8.80145 60.2606L5.35898 60L6.85456 56.8884L3.45818 56.2695L5.27081 53.3313L1.95774 52.3607L4.06756 49.6281L0.874096 48.3165L3.25799 45.8194L0.219124 44.1811L2.85098 41.9469L0 40L2.85098 38.0531L0.219124 35.8189L3.25799 34.1806L0.874096 31.6835L4.06756 30.3719L1.95774 27.6393L5.27081 26.6687L3.45818 23.7305L6.85456 23.1116L5.35898 20L8.80145 19.7394L7.63932 16.4886L11.0902 16.5893L10.2742 13.2348L13.6956 13.6956L13.2348 10.2742L16.5893 11.0902L16.4886 7.63932L19.7394 8.80145L20 5.35898L23.1116 6.85456L23.7305 3.45818L26.6687 5.27081L27.6393 1.95774L30.3719 4.06756L31.6835 0.874096L34.1806 3.25799L35.8189 0.219124L38.0531 2.85098L40 0Z" fill="#D9D9D9"/>
</svg>
